<svg width="132" height="31" viewBox="0 0 132 31" fill="none" xmlns="http://www.w3.org/2000/svg">
<path d="M0 0.117188H3.15234L4.94531 12.1523L9.30469 0.117188H12.293L16.3711 11.6836L18.2695 0.117188H21.3281L18.1758 16.875H15.2227L10.6172 3.72656L5.67188 16.875H2.75391L0 0.117188Z" fill="white"/>
<path d="M26.4745 4.57031C30.2089 4.57031 32.0761 6.47656 32.0761 10.2891C32.0761 10.7969 32.0409 11.3047 31.9706 11.8125H23.8027C23.8027 13.5469 25.0761 14.4141 27.623 14.4141C28.8652 14.4141 30.1073 14.2969 31.3495 14.0625V16.5234C30.2636 16.7578 28.9433 16.875 27.3886 16.875C22.9277 16.875 20.6972 14.7773 20.6972 10.582C20.6972 6.57422 22.623 4.57031 26.4745 4.57031ZM23.8027 9.65625H29.0527V9.5625C29.0527 7.85938 28.1933 7.00781 26.4745 7.00781C24.8339 7.00781 23.9433 7.89062 23.8027 9.65625Z" fill="white"/>
<path d="M36.3136 14.0273C37.0245 14.2539 37.8488 14.3672 38.7863 14.3672C40.6613 14.3672 41.5988 13.043 41.5988 10.3945C41.5988 8.23047 40.7902 7.14844 39.173 7.14844C38.1261 7.14844 37.173 7.35938 36.3136 7.78125V14.0273ZM33.2081 0.117188H36.3136V5.50781C37.2433 4.88281 38.2784 4.57031 39.4191 4.57031C42.9191 4.57031 44.6691 6.53906 44.6691 10.4766C44.6691 14.7422 42.6652 16.875 38.6573 16.875C36.9698 16.875 35.1534 16.707 33.2081 16.3711V0.117188Z" fill="white"/>
<path d="M47.3058 16.875V0.117188H50.4113L59.2589 12.3281V0.117188H62.2472V16.875H59.1417L50.2941 4.40625V16.875H47.3058Z" fill="white"/>
<path d="M67.6913 8.44922C67.6913 12.3477 69.4217 14.2969 72.8827 14.2969C76.2577 14.2969 77.9452 12.3477 77.9452 8.44922C77.9452 4.61328 76.2577 2.69531 72.8827 2.69531C69.4217 2.69531 67.6913 4.61328 67.6913 8.44922ZM64.4686 8.51953C64.4686 2.83984 67.2733 0 72.8827 0C78.4061 0 81.1678 2.83984 81.1678 8.51953C81.1678 14.168 78.4061 16.9922 72.8827 16.9922C67.5233 16.9922 64.7186 14.168 64.4686 8.51953Z" fill="white"/>
<path d="M99.3502 0.117188L92.0025 16.875H88.6627L81.6314 0.117188H85.3228L90.5142 12.9492L95.6939 0.117188H99.3502Z" fill="white"/>
<path d="M99.7106 16.875H96.5231L103.636 0.117188H106.976L114.242 16.875H110.902L108.992 12.3047H103.425L104.492 9.60938H107.867L105.23 3.31641L99.7106 16.875Z" fill="white"/>
<path d="M1.44381 27.9137C1.76251 28.0152 2.14949 28.066 2.60477 28.066C3.83053 28.066 4.44341 27.3673 4.44341 25.97C4.44341 24.7897 3.88831 24.1996 2.77813 24.1996C2.27382 24.1996 1.82905 24.2942 1.44381 24.4833V27.9137ZM0.471962 21.3629H1.44381V23.6218C1.86057 23.4467 2.30709 23.3591 2.78338 23.3591C4.52746 23.3591 5.39949 24.2416 5.39949 26.0067C5.39949 27.9189 4.48368 28.875 2.65205 28.875C1.86057 28.875 1.13387 28.7997 0.471962 28.6491V21.3629Z" fill="#9F9FBC"/>
<path d="M6.05615 23.3591H7.11205L8.67226 27.6668L10.285 23.3591H11.3146L9.02422 29.0378C8.61797 30.0395 8.0086 30.6646 7.1961 30.9133L6.82312 30.2251C7.4395 29.9554 7.88777 29.5159 8.16795 28.9065L6.05615 23.3591Z" fill="#9F9FBC"/>
<path d="M80.4502 25.1465C80.4546 25.2226 80.4573 25.2987 80.4583 25.3749C80.4567 25.5044 80.4502 25.6338 80.4389 25.7628C81.0359 25.0724 81.5013 24.3476 81.7206 23.6363C82.0865 22.4495 81.7442 21.5592 80.9333 21.0769C80.2007 20.6412 79.0721 20.5482 77.7101 20.8282C77.7332 20.8392 77.7562 20.8504 77.7791 20.8617C77.9297 20.9439 78.0761 21.0335 78.2178 21.1302C78.2632 21.1636 78.3081 21.1978 78.3524 21.2327C79.2408 21.1591 79.9795 21.2804 80.488 21.5828C81.2178 22.0169 81.4944 22.7816 81.1884 23.7741C81.0493 24.2252 80.788 24.6884 80.4502 25.1465Z" fill="#9F9FBC"/>
<path d="M71.0777 25.0299C70.7019 25.5491 70.4014 26.0795 70.2403 26.602C69.8744 27.7887 70.2162 28.6809 71.0271 29.1632C71.5363 29.466 72.2458 29.5938 73.081 29.5592C75.7496 29.4912 77.7224 27.8923 77.7224 27.8923L77.4188 27.4052C77.4188 27.4052 75.1016 29.093 72.5521 28.9843C72.1349 28.928 71.7597 28.8281 71.4725 28.6573C70.7426 28.2232 70.4685 27.4566 70.7745 26.4642C70.8468 26.2296 70.9534 25.9911 71.0819 25.7525C71.071 25.6269 71.0647 25.501 71.063 25.3749C71.064 25.2598 71.0689 25.1447 71.0777 25.0299Z" fill="#9F9FBC"/>
<path d="M75.7569 30.4953C75.9073 30.5094 76.0583 30.517 76.2093 30.5179C76.8852 30.5179 77.5544 30.3848 78.1788 30.1264C78.8032 29.8679 79.3705 29.4891 79.8484 29.0115C80.3263 28.534 80.7054 27.967 80.9641 27.343C81.2227 26.719 81.3558 26.0503 81.3558 25.3749C81.3557 24.0109 80.8135 22.7028 79.8483 21.7384C78.8832 20.7739 77.5742 20.2321 76.2093 20.2321C76.0612 20.2333 75.9133 20.2408 75.7659 20.2547C75.7858 20.2555 75.8058 20.2564 75.8257 20.2574C75.9965 20.2745 76.1663 20.3002 76.3345 20.3342C76.5026 20.3684 76.6689 20.4109 76.8328 20.4617C76.9967 20.5123 77.158 20.5711 77.3161 20.6379C77.4741 20.7047 77.6285 20.7795 77.7791 20.8617C77.9297 20.9439 78.0761 21.0335 78.2178 21.1302C78.3595 21.2271 78.4963 21.3308 78.6275 21.4413C78.7587 21.5517 78.8843 21.6686 79.0038 21.7916C79.1233 21.9146 79.2366 22.0435 79.3433 22.1778C79.45 22.3122 79.5499 22.4518 79.6427 22.5961C79.7354 22.7404 79.8207 22.8892 79.8985 23.0421C79.9764 23.1949 80.0465 23.3514 80.1087 23.5112C80.1709 23.671 80.225 23.8339 80.2709 23.9991C80.3167 24.1644 80.3543 24.3318 80.3834 24.5008C80.4126 24.6697 80.4334 24.84 80.4456 25.011C80.4542 25.1321 80.4583 25.2536 80.4583 25.3749C80.4583 25.5464 80.4499 25.7175 80.4328 25.8881C80.4157 26.0588 80.39 26.2284 80.3559 26.3965C80.3218 26.5646 80.2793 26.7309 80.2286 26.8947C80.1779 27.0585 80.1191 27.2196 80.0523 27.3775C79.9855 27.5354 79.9108 27.69 79.8285 27.8405C79.7462 27.991 79.6564 28.1372 79.5595 28.2787C79.4627 28.4202 79.3589 28.5568 79.2484 28.688C79.1378 28.8191 79.0207 28.9446 78.8975 29.064C78.7745 29.1835 78.6455 29.2967 78.511 29.4033C78.3766 29.5099 78.2369 29.6098 78.0925 29.7025C77.9482 29.7951 77.7993 29.8804 77.6465 29.9581C77.4935 30.0359 77.3368 30.106 77.1768 30.1682C77.0169 30.2303 76.854 30.2844 76.6888 30.3302C76.5234 30.3761 76.3559 30.4138 76.1868 30.443C76.0443 30.4664 75.9009 30.4839 75.7569 30.4953Z" fill="#9F9FBC"/>
<path d="M77.3861 26.6378C76.7938 26.6378 76.3134 27.1179 76.3134 27.7099C76.3134 28.3018 76.7938 28.7819 77.3861 28.7819C77.9785 28.7819 78.4589 28.3018 78.4589 27.7099C78.4589 27.1179 77.9785 26.6378 77.3861 26.6378Z" fill="#9F9FBC"/>
<path d="M18.8051 24.7392H22.6609V25.7714H18.8051V24.7392Z" fill="#9F9FBC"/>
<path fill-rule="evenodd" clip-rule="evenodd" d="M22.922 21.8325V23.0545H17.9035V27.5628H22.922V28.7848H16.7052V21.8325H22.922Z" fill="#9F9FBC"/>
<path fill-rule="evenodd" clip-rule="evenodd" d="M59.5404 22.0935C59.9627 21.8705 60.5112 21.8266 60.7327 21.8325L65.7393 21.8325V23.0545H60.7327C60.4183 23.0545 59.8607 23.1909 59.8607 23.885C59.8607 24.6205 60.4539 24.7392 60.7327 24.7392H63.9716C64.4224 24.7392 64.923 24.8158 65.3063 25.0595C65.7854 25.3641 66.0834 25.8488 66.0834 26.7383C66.0834 27.6277 65.6871 28.2298 65.1606 28.5161C64.7467 28.7412 64.1197 28.7888 63.8885 28.7846L58.7158 28.7848V27.5628H63.8791C64.4829 27.5621 64.9326 27.301 64.9326 26.6763C64.9326 25.9209 64.3928 25.7714 63.9716 25.7714L60.7208 25.7714C60.4749 25.7694 59.9126 25.7082 59.5344 25.4748C59.0539 25.1782 58.6031 24.6502 58.6031 23.7841C58.6031 22.9181 59.0124 22.3723 59.5404 22.0935Z" fill="#9F9FBC"/>
<path fill-rule="evenodd" clip-rule="evenodd" d="M50.1025 21.8206H51.3482V25.8663C51.3428 26.1778 51.4311 26.9081 51.9533 27.2722C52.5576 27.6935 53.3277 27.69 53.8229 27.6877L53.8278 27.6877C53.8433 27.6877 53.8591 27.6874 53.8753 27.6875C53.8914 27.6874 53.9073 27.6874 53.9227 27.6874L53.9276 27.6877C54.4229 27.69 55.193 27.6935 55.7972 27.2722C56.3194 26.9081 56.408 26.1778 56.4026 25.8663L56.4023 21.8206H57.648V26.0205C57.648 26.6493 57.4782 27.4603 56.8116 28.0789C56.093 28.7458 54.923 28.8667 53.9227 28.8735C53.907 28.8735 53.8911 28.8738 53.8753 28.8737C53.8594 28.8738 53.8436 28.8738 53.8278 28.8738C52.8275 28.867 51.6576 28.7458 50.9389 28.0789C50.2723 27.4603 50.1025 26.6493 50.1025 26.0205V21.8206Z" fill="#9F9FBC"/>
<path fill-rule="evenodd" clip-rule="evenodd" d="M23.8652 21.8325H25.5143L28.1777 24.4129L30.7997 21.8325H32.3717L28.9133 25.1722L32.6683 28.7848H30.9777L28.0532 25.9432L25.1524 28.7848H23.5864L27.3235 25.1722L23.8652 21.8325Z" fill="#9F9FBC"/>
<path fill-rule="evenodd" clip-rule="evenodd" d="M37.5859 21.8325V21.8352C37.9638 21.8498 38.6532 21.931 39.1698 22.2418C39.9077 22.6858 40.3206 23.1613 40.5994 23.9028C40.8248 24.5021 40.8232 25.0036 40.8226 25.2199C40.8225 25.2307 40.8225 25.2409 40.8225 25.2503L40.8224 25.368C40.8224 25.3774 40.8225 25.3875 40.8226 25.3983C40.8232 25.6147 40.8248 26.1161 40.5994 26.7154C40.3206 27.4569 39.9077 27.9325 39.1698 28.3764C38.6522 28.6878 37.9612 28.7688 37.5838 28.7831V28.7857H35.5906V28.7831C35.2127 28.7685 34.5233 28.6872 34.0067 28.3764C33.2689 27.9325 32.8559 27.4569 32.5771 26.7154C32.3518 26.1161 32.3533 25.6147 32.354 25.3983C32.354 25.392 32.354 25.3857 32.354 25.3798L32.3539 25.2375C32.3539 25.2318 32.354 25.226 32.354 25.2199C32.3533 25.0036 32.3518 24.5021 32.5771 23.9028C32.8559 23.1613 33.2689 22.6858 34.0068 22.2418C34.5243 21.9304 35.2154 21.8494 35.5928 21.8351V21.8325H37.5859ZM39.6123 25.3798V25.2377C39.6099 24.8942 39.5084 24.2027 39.0666 23.7376C38.6195 23.2669 38.1815 23.0426 37.4554 23.0426H35.7233C34.9973 23.0426 34.557 23.2669 34.1099 23.7376C33.6627 24.2084 33.5642 24.9112 33.5642 25.2503L33.564 25.368C33.564 25.707 33.6627 26.4098 34.1099 26.8806C34.5567 27.351 34.9944 27.5753 35.7195 27.5756L37.4533 27.5756C38.1793 27.5756 38.6195 27.3513 39.0666 26.8806C39.5087 26.4153 39.61 25.7232 39.6123 25.3798Z" fill="#9F9FBC"/>
<path fill-rule="evenodd" clip-rule="evenodd" d="M45.867 21.8206H41.9163V21.8325H41.8333V28.7848L45.8077 28.7857V27.5747L43.0315 27.5664V23.0426L45.867 23.0426C46.5931 23.0426 47.0311 23.2669 47.4782 23.7376C47.9201 24.2027 48.0215 24.8943 48.0239 25.2379V25.3799C48.0217 25.7232 47.9203 26.4153 47.4782 26.8806C47.0311 27.3513 46.5909 27.5756 45.8649 27.5756L45.8077 27.5747V28.7857L45.9954 28.7857V28.7831C46.3728 28.7688 47.0638 28.6878 47.5814 28.3764C48.3193 27.9325 48.7322 27.4569 49.011 26.7154C49.2364 26.1161 49.2348 25.6147 49.2342 25.3983C49.2342 25.3875 49.2341 25.3774 49.2341 25.368L49.234 25.2503C49.234 25.2409 49.2341 25.2309 49.2342 25.2201C49.2348 25.0038 49.2364 24.5022 49.011 23.9028C48.7322 23.1613 48.3193 22.6858 47.5814 22.2418C47.0648 21.931 46.3754 21.8498 45.9975 21.8352V21.8325H45.8665L45.867 21.8206Z" fill="#9F9FBC"/>
<path d="M112.088 22.2255L108.142 28.7844H109.517L112.672 23.4344L114.242 26.0608H112.088L111.518 27.0335H114.812L115.84 28.7844H117.285L113.339 22.2255C113.214 22.031 113.003 21.753 112.713 21.753C112.426 21.753 112.229 22.0287 112.09 22.2231L112.088 22.2255Z" fill="#9F9FBC"/>
<path fill-rule="evenodd" clip-rule="evenodd" d="M125.184 22.0977C125.606 21.8748 126.154 21.831 126.375 21.8369L131.378 21.8369V23.0581H126.367C126.051 23.0605 125.504 23.2006 125.504 23.8879C125.504 24.6178 126.088 24.7399 126.369 24.7415H129.612C130.062 24.7415 130.563 24.8182 130.946 25.0617C131.424 25.3661 131.722 25.8504 131.722 26.7393C131.722 27.6281 131.326 28.2297 130.8 28.5158C130.386 28.7408 129.76 28.7883 129.529 28.7841L124.36 28.7844V27.5632H129.517C130.122 27.5632 130.572 27.3024 130.572 26.6773C130.572 25.9224 130.033 25.773 129.612 25.773L126.375 25.773C126.373 25.773 126.37 25.773 126.368 25.773H126.363C126.118 25.7711 125.556 25.7099 125.178 25.4766C124.698 25.1802 124.247 24.6526 124.247 23.7872C124.247 22.9217 124.656 22.3763 125.184 22.0977Z" fill="#9F9FBC"/>
<path fill-rule="evenodd" clip-rule="evenodd" d="M92.4531 21.8364V28.7844L97.5669 28.7844C98.3895 28.7844 98.8036 28.6732 99.29 28.2563C99.5957 27.9506 99.9292 27.6088 99.9292 26.6861C99.9292 25.5327 99.0815 25.2131 98.8592 25.1297C99.6651 24.7962 99.818 24.1848 99.818 23.6707C99.818 23.6679 99.818 23.6649 99.818 23.6617C99.8182 23.5692 99.8187 23.304 99.679 22.9064C99.2205 21.9337 98.1922 21.8364 97.4974 21.8364H92.4531ZM93.676 23.0317V27.5893H97.2472C97.9281 27.5893 98.6785 27.4531 98.6785 26.6861C98.6785 25.919 98.0671 25.7828 97.7475 25.7828H94.5514V24.7406H97.7475C98.0671 24.7406 98.5396 24.6017 98.5396 23.9069C98.5396 23.226 98.1088 23.0592 97.3723 23.0592L93.676 23.0317Z" fill="#9F9FBC"/>
<path d="M100.902 21.8364H102.125V28.7844H100.902V21.8364Z" fill="#9F9FBC"/>
<path fill-rule="evenodd" clip-rule="evenodd" d="M106.71 28.7844V23.0592H109.323V21.8364H102.847V23.0592H105.488V28.7844H106.71Z" fill="#9F9FBC"/>
<path fill-rule="evenodd" clip-rule="evenodd" d="M119.078 21.8364H117.855V28.7844L123.775 28.7844V27.5615H119.078V21.8364Z" fill="#9F9FBC"/>
<path fill-rule="evenodd" clip-rule="evenodd" d="M83.782 21.8364V28.7844H85.0049V23.0453H88.7429C89.2154 23.0453 90.1047 23.1704 90.1047 24.3793C90.1047 25.6856 89.2709 25.8106 88.7429 25.8106H85.8803V26.8528H88.4778L90.2549 28.7844H91.9529L89.8819 26.6862C91.1048 26.1859 91.3137 25.088 91.3137 24.3793C91.3137 23.7262 91.2312 23.1694 90.6605 22.559C90.063 21.9198 89.3265 21.8364 88.3121 21.8364L83.782 21.8364Z" fill="#9F9FBC"/>
</svg>
