<svg width="296" height="80" viewBox="0 0 296 80" fill="none" xmlns="http://www.w3.org/2000/svg">
<path d="M19.478 0.273193H26.5708L30.605 27.3523L40.4136 0.273193H47.1372L56.313 26.2976L60.5845 0.273193H67.4663L60.3735 37.9783H53.729L43.3667 8.39429L32.2397 37.9783H25.6743L19.478 0.273193Z" fill="white"/>
<path d="M79.0457 10.2927C87.4481 10.2927 91.6492 14.5818 91.6492 23.1599C91.6492 24.3025 91.5701 25.4451 91.4119 26.5876H73.034C73.034 30.49 75.8992 32.4412 81.6297 32.4412C84.4246 32.4412 87.2196 32.1775 90.0145 31.6501V37.1873C87.5711 37.7146 84.6004 37.9783 81.1024 37.9783C71.0653 37.9783 66.0467 33.2585 66.0467 23.8191C66.0467 14.8015 70.3797 10.2927 79.0457 10.2927ZM73.034 21.7361H84.8465V21.5251C84.8465 17.6931 82.9129 15.7771 79.0457 15.7771C75.3543 15.7771 73.3504 17.7634 73.034 21.7361Z" fill="white"/>
<path d="M101.184 31.571C102.783 32.0808 104.638 32.3357 106.747 32.3357C110.966 32.3357 113.075 29.3562 113.075 23.3972C113.075 18.5281 111.256 16.0935 107.617 16.0935C105.262 16.0935 103.117 16.5681 101.184 17.5173V31.571ZM94.1963 0.273193H101.184V12.4021C103.275 10.9958 105.605 10.2927 108.171 10.2927C116.046 10.2927 119.983 14.7224 119.983 23.5818C119.983 33.1794 115.475 37.9783 106.457 37.9783C102.66 37.9783 98.5733 37.6003 94.1963 36.8445V0.273193Z" fill="white"/>
<path d="M125.916 37.9783V0.273193H132.903L152.811 27.7478V0.273193H159.534V37.9783H152.547L132.64 9.92358V37.9783H125.916Z" fill="white"/>
<path d="M171.783 19.0203C171.783 27.7917 175.677 32.1775 183.464 32.1775C191.058 32.1775 194.855 27.7917 194.855 19.0203C194.855 10.3894 191.058 6.07397 183.464 6.07397C175.677 6.07397 171.783 10.3894 171.783 19.0203ZM164.532 19.1785C164.532 6.39917 170.843 0.00952148 183.464 0.00952148C195.892 0.00952148 202.106 6.39917 202.106 19.1785C202.106 31.8875 195.892 38.2419 183.464 38.2419C171.405 38.2419 165.095 31.8875 164.532 19.1785Z" fill="white"/>
<path d="M243.016 0.273193L226.484 37.9783H218.969L203.149 0.273193H211.454L223.135 29.1453L234.789 0.273193H243.016Z" fill="white"/>
<path d="M243.827 37.9783H236.655L252.66 0.273193H260.175L276.522 37.9783H269.008L264.71 27.6951H252.185L254.585 21.6306H262.178L256.246 7.47144L243.827 37.9783Z" fill="white"/>
<path d="M3.2631 67.4412C3.98016 67.6697 4.81149 67.7839 5.75707 67.7839C7.64823 67.7839 8.59382 66.4483 8.59382 63.777C8.59382 61.5943 7.77825 60.503 6.14712 60.503C5.09122 60.503 4.12988 60.7157 3.2631 61.1412V67.4412ZM0.130859 53.4111H3.2631V58.8482C4.2008 58.2178 5.24488 57.9026 6.39534 57.9026C9.92551 57.9026 11.6906 59.8883 11.6906 63.8598C11.6906 68.1622 9.66941 70.3134 5.62705 70.3134C3.92501 70.3134 2.09294 70.144 0.130859 69.8051V53.4111Z" fill="#9F9FBC"/>
<path d="M12.5771 57.9026H15.8984L19.0307 66.8384L22.092 57.9026H25.3543L20.2008 70.6798C19.2868 72.9334 17.8251 74.537 15.8157 75.4904L14.3028 73.3511C15.6896 72.7443 16.6982 71.7554 17.3286 70.3843L12.5771 57.9026Z" fill="#9F9FBC"/>
<path d="M180.507 61.2992C180.517 61.4704 180.523 61.6417 180.526 61.8132C180.522 62.1046 180.507 62.3957 180.482 62.686C181.825 61.1325 182.872 59.5017 183.366 57.9012C184.189 55.231 183.419 53.2278 181.594 52.1427C179.946 51.1623 177.407 50.9531 174.342 51.5831C174.394 51.6078 174.446 51.6329 174.497 51.6585C174.836 51.8433 175.166 52.0449 175.485 52.2627C175.587 52.3378 175.688 52.4146 175.787 52.4931C177.786 52.3275 179.448 52.6006 180.592 53.281C182.235 54.2577 182.857 55.9783 182.168 58.2113C181.855 59.2263 181.267 60.2686 180.507 61.2992Z" fill="#9F9FBC"/>
<path d="M159.419 61.037C158.574 62.2051 157.898 63.3984 157.535 64.5741C156.712 67.2442 157.481 69.2517 159.305 70.3368C160.451 71.0182 162.048 71.3056 163.927 71.2278C169.931 71.0747 174.37 67.4772 174.37 67.4772L173.687 66.3814C173.687 66.3814 168.473 70.1788 162.737 69.9344C161.798 69.8075 160.954 69.5829 160.308 69.1985C158.665 68.2219 158.049 66.497 158.737 64.264C158.9 63.7362 159.14 63.1996 159.429 62.6627C159.404 62.3801 159.39 62.0968 159.386 61.8132C159.388 61.5541 159.4 61.2953 159.419 61.037Z" fill="#9F9FBC"/>
<path d="M169.948 73.334C170.286 73.3659 170.626 73.3828 170.965 73.3848C172.486 73.3848 173.992 73.0855 175.397 72.504C176.802 71.9225 178.078 71.0701 179.153 69.9956C180.229 68.921 181.082 67.6454 181.664 66.2414C182.246 64.8374 182.545 63.3327 182.545 61.8131C182.545 58.7442 181.325 55.801 179.153 53.631C176.982 51.461 174.036 50.2419 170.965 50.2419C170.632 50.2445 170.299 50.2614 169.968 50.2927C170.013 50.2945 170.057 50.2965 170.102 50.2989C170.487 50.3374 170.869 50.395 171.247 50.4717C171.625 50.5485 172 50.6442 172.368 50.7584C172.737 50.8724 173.1 51.0047 173.456 51.1549C173.811 51.3051 174.159 51.4735 174.497 51.6585C174.836 51.8433 175.166 52.0449 175.485 52.2627C175.803 52.4806 176.111 52.7139 176.406 52.9625C176.702 53.211 176.984 53.4741 177.253 53.7507C177.522 54.0275 177.777 54.3175 178.017 54.6198C178.257 54.922 178.482 55.2361 178.691 55.5608C178.899 55.8855 179.091 56.2204 179.266 56.5643C179.441 56.908 179.599 57.2603 179.739 57.6198C179.879 57.9794 180.001 58.3459 180.104 58.7177C180.207 59.0895 180.292 59.4661 180.357 59.8463C180.423 60.2265 180.47 60.6096 180.497 60.9944C180.516 61.2668 180.526 61.5401 180.526 61.8132C180.526 62.1989 180.507 62.584 180.468 62.9679C180.43 63.3518 180.372 63.7336 180.295 64.1118C180.219 64.49 180.123 64.8641 180.009 65.2328C179.895 65.6012 179.762 65.9637 179.612 66.3189C179.462 66.6744 179.294 67.0221 179.109 67.3608C178.923 67.6993 178.721 68.0283 178.503 68.3466C178.286 68.6651 178.052 68.9725 177.803 69.2676C177.554 69.5626 177.291 69.8449 177.014 70.1136C176.737 70.3824 176.447 70.6372 176.144 70.877C175.842 71.117 175.528 71.3416 175.203 71.5502C174.878 71.7585 174.543 71.9505 174.199 72.1254C173.855 72.3005 173.502 72.4582 173.142 72.598C172.783 72.7377 172.416 72.8594 172.044 72.9626C171.672 73.0659 171.295 73.1506 170.915 73.2163C170.594 73.2689 170.271 73.3085 169.948 73.334Z" fill="#9F9FBC"/>
<path d="M173.613 64.6548C172.28 64.6548 171.2 65.7348 171.2 67.0668C171.2 68.3988 172.28 69.4788 173.613 69.4788C174.946 69.4788 176.027 68.3988 176.027 67.0668C176.027 65.7348 174.946 64.6548 173.613 64.6548Z" fill="#9F9FBC"/>
<path d="M41.806 60.3828H50.4816V62.7052H41.806V60.3828Z" fill="#9F9FBC"/>
<path fill-rule="evenodd" clip-rule="evenodd" d="M51.0689 53.8427V56.5922H39.7773V66.736H51.0689V69.4855H37.0812V53.8427H51.0689Z" fill="#9F9FBC"/>
<path fill-rule="evenodd" clip-rule="evenodd" d="M133.46 54.43C134.411 53.9281 135.645 53.8294 136.143 53.8427L147.408 53.8427V56.5922H136.143C135.436 56.5922 134.181 56.8992 134.181 58.4608C134.181 60.1158 135.516 60.3828 136.143 60.3828H143.431C144.445 60.3828 145.571 60.5552 146.434 61.1035C147.512 61.7889 148.182 62.8795 148.182 64.8807C148.182 66.882 147.29 68.2366 146.106 68.8808C145.175 69.3873 143.764 69.4944 143.244 69.4849L131.605 69.4855V66.736H143.222C144.581 66.7344 145.593 66.1469 145.593 64.7413C145.593 63.0416 144.378 62.7052 143.431 62.7052L136.116 62.7052C135.563 62.7009 134.298 62.5631 133.447 62.0378C132.366 61.3705 131.351 60.1826 131.351 58.2339C131.351 56.2852 132.272 55.0573 133.46 54.43Z" fill="#9F9FBC"/>
<path fill-rule="evenodd" clip-rule="evenodd" d="M112.225 53.816H115.028V62.9187C115.016 63.6198 115.215 65.2628 116.389 66.082C117.749 67.03 119.482 67.022 120.596 67.017L120.607 67.0169C120.642 67.0169 120.677 67.0163 120.714 67.0165C120.75 67.0163 120.786 67.0163 120.821 67.0163L120.832 67.017C121.946 67.022 123.679 67.03 125.038 66.082C126.213 65.2628 126.412 63.6198 126.4 62.9187L126.4 53.816H129.203V63.2657C129.203 64.6805 128.82 66.5053 127.321 67.8972C125.704 69.3977 123.071 69.6696 120.821 69.6849C120.785 69.6849 120.75 69.6856 120.714 69.6855C120.678 69.6856 120.643 69.6857 120.607 69.6857C118.356 69.6703 115.724 69.3977 114.107 67.8972C112.607 66.5053 112.225 64.6805 112.225 63.2657V53.816Z" fill="#9F9FBC"/>
<path fill-rule="evenodd" clip-rule="evenodd" d="M53.1911 53.8427H56.9015L62.8944 59.6487L68.7938 53.8427H72.3307L64.5494 61.3571L72.9981 69.4855H69.1942L62.6141 63.0919L56.0874 69.4855H52.5638L60.9724 61.3571L53.1911 53.8427Z" fill="#9F9FBC"/>
<path fill-rule="evenodd" clip-rule="evenodd" d="M84.0628 53.8428V53.8488C84.9131 53.8816 86.4642 54.0645 87.6265 54.7637C89.2867 55.7626 90.2158 56.8325 90.8431 58.5009C91.3502 59.8495 91.3467 60.9777 91.3452 61.4644C91.3452 61.4888 91.3451 61.5116 91.3451 61.5327L91.3449 61.7976C91.3449 61.8187 91.3452 61.8415 91.3452 61.8659C91.3467 62.3526 91.3502 63.4808 90.8431 64.8293C90.2158 66.4977 89.2867 67.5677 87.6265 68.5665C86.462 69.2671 84.9071 69.4494 84.0579 69.4817V69.4875H79.5733V69.4815C78.7231 69.4487 77.1719 69.2658 76.0096 68.5665C74.3494 67.5677 73.4203 66.4977 72.793 64.8293C72.286 63.4808 72.2894 62.3526 72.2909 61.8659C72.2909 61.8516 72.291 61.8375 72.291 61.8243L72.2907 61.5039C72.2907 61.4913 72.2909 61.4781 72.2909 61.4644C72.2894 60.9777 72.286 59.8495 72.793 58.5009C73.4203 56.8325 74.3494 55.7626 76.0097 54.7637C77.1742 54.0631 78.729 53.8809 79.5782 53.8486V53.8428H84.0628ZM88.6222 61.8243V61.5046C88.6168 60.7316 88.3884 59.1756 87.3944 58.1292C86.3884 57.0702 85.4027 56.5656 83.7692 56.5656H79.8718C78.2383 56.5656 77.2477 57.0702 76.2418 58.1292C75.2355 59.1885 75.0138 60.7699 75.0138 61.5327L75.0135 61.7976C75.0135 62.5604 75.2355 64.1418 76.2418 65.2011C77.247 66.2593 78.2319 66.764 79.8633 66.7647L83.7643 66.7647C85.3978 66.7647 86.3884 66.2601 87.3944 65.2011C88.389 64.154 88.6171 62.5968 88.6222 61.8243Z" fill="#9F9FBC"/>
<path fill-rule="evenodd" clip-rule="evenodd" d="M102.695 53.816H93.8062V53.8427H93.6193V69.4855L102.562 69.4875V66.7627L96.3154 66.7439V56.5655L102.695 56.5656C104.329 56.5656 105.314 57.0702 106.32 58.1292C107.315 59.1757 107.543 60.7319 107.548 61.5048V61.8243C107.543 62.5968 107.315 64.154 106.32 65.2011C105.315 66.2601 104.324 66.7647 102.69 66.7647H102.562L102.562 69.4875L102.984 69.4875V69.4817C103.833 69.4494 105.388 69.2671 106.553 68.5665C108.213 67.5677 109.142 66.4977 109.769 64.8294C110.276 63.4808 110.273 62.3526 110.271 61.8659C110.271 61.8415 110.271 61.8187 110.271 61.7976L110.271 61.5327C110.271 61.5117 110.271 61.4891 110.271 61.465C110.273 60.9782 110.276 59.8495 109.769 58.5009C109.142 56.8325 108.213 55.7626 106.553 54.7637C105.39 54.0645 103.839 53.8816 102.989 53.8488V53.8428H102.694L102.695 53.816Z" fill="#9F9FBC"/>
<path d="M251.693 54.727L242.813 69.4845H245.909L253.006 57.4471L256.539 63.3564H251.693L250.411 65.545H257.821L260.135 69.4845H263.386L254.507 54.727C254.225 54.2893 253.75 53.6639 253.1 53.6639C252.452 53.6639 252.009 54.2842 251.697 54.7216L251.693 54.727Z" fill="#9F9FBC"/>
<path fill-rule="evenodd" clip-rule="evenodd" d="M281.158 54.4395C282.108 53.938 283.341 53.8393 283.839 53.8526L295.096 53.8527V56.6003H283.82C283.11 56.6058 281.878 56.9209 281.878 58.4675C281.878 60.1097 283.193 60.3843 283.825 60.3881H291.121C292.135 60.3881 293.26 60.5605 294.122 61.1084C295.2 61.7932 295.869 62.8831 295.869 64.8829C295.869 66.8828 294.978 68.2365 293.795 68.8802C292.864 69.3863 291.454 69.4934 290.935 69.4839L279.304 69.4845V66.7369H290.908C292.268 66.7369 293.282 66.15 293.282 64.7436C293.282 63.0451 292.068 62.7089 291.121 62.7089L283.839 62.7089C283.833 62.7089 283.828 62.7089 283.822 62.7089H283.812C283.259 62.7045 281.995 62.5669 281.145 62.042C280.064 61.3751 279.051 60.1881 279.051 58.2407C279.051 56.2934 279.971 55.0663 281.158 54.4395Z" fill="#9F9FBC"/>
<path fill-rule="evenodd" clip-rule="evenodd" d="M207.514 53.8515V69.4845L219.02 69.4845C220.871 69.4845 221.803 69.2343 222.897 68.2964C223.585 67.6085 224.335 66.8394 224.335 64.7633C224.335 62.1682 222.428 61.4491 221.928 61.2615C223.741 60.5111 224.085 59.1354 224.085 57.9786C224.085 57.9723 224.085 57.9656 224.085 57.9585C224.085 57.7503 224.087 57.1536 223.772 56.259C222.741 54.0703 220.427 53.8515 218.864 53.8515H207.514ZM210.265 56.541V66.7956H218.301C219.833 66.7956 221.521 66.4892 221.521 64.7633C221.521 63.0374 220.145 62.731 219.426 62.731H212.235V60.3861H219.426C220.145 60.3861 221.209 60.0734 221.209 58.5101C221.209 56.9781 220.239 56.6029 218.582 56.6029L210.265 56.541Z" fill="#9F9FBC"/>
<path d="M226.524 53.8515H229.275V69.4845H226.524V53.8515Z" fill="#9F9FBC"/>
<path fill-rule="evenodd" clip-rule="evenodd" d="M239.593 69.4845V56.6029H245.471V53.8515H230.901V56.6029H236.842V69.4845H239.593Z" fill="#9F9FBC"/>
<path fill-rule="evenodd" clip-rule="evenodd" d="M267.42 53.8515H264.668V69.4845L277.988 69.4845V66.7331H267.42V53.8515Z" fill="#9F9FBC"/>
<path fill-rule="evenodd" clip-rule="evenodd" d="M188.004 53.8515V69.4845H190.755V56.5716H199.166C200.229 56.5716 202.23 56.853 202.23 59.5732C202.23 62.5122 200.354 62.7936 199.166 62.7936H192.725V65.1385H198.569L202.568 69.4845H206.388L201.729 64.7635L201.73 64.7633C204.481 63.6377 204.95 61.1677 204.95 59.5732C204.95 58.1037 204.765 56.8508 203.481 55.4773C202.136 54.0391 200.479 53.8515 198.197 53.8515L188.004 53.8515Z" fill="#9F9FBC"/>
</svg>
