<svg width="16" height="16" viewBox="0 0 16 16" fill="none" xmlns="http://www.w3.org/2000/svg">
<path fill-rule="evenodd" clip-rule="evenodd" d="M1.56763 4.64604C1.61187 4.59948 1.66442 4.56253 1.72227 4.53733C1.78012 4.51212 1.84214 4.49915 1.90478 4.49915C1.96741 4.49915 2.02943 4.51212 2.08728 4.53733C2.14514 4.56253 2.19769 4.59948 2.24192 4.64604L7.61906 10.293L12.9962 4.64604C13.0405 4.59955 13.093 4.56267 13.1509 4.53752C13.2087 4.51236 13.2707 4.49941 13.3333 4.49941C13.396 4.49941 13.458 4.51236 13.5158 4.53752C13.5737 4.56267 13.6262 4.59955 13.6705 4.64604C13.7148 4.69253 13.7499 4.74772 13.7738 4.80846C13.7978 4.86919 13.8101 4.9343 13.8101 5.00004C13.8101 5.06578 13.7978 5.13088 13.7738 5.19162C13.7499 5.25236 13.7148 5.30755 13.6705 5.35404L7.9562 11.354C7.91197 11.4006 7.85942 11.4375 7.80157 11.4628C7.74372 11.488 7.6817 11.5009 7.61906 11.5009C7.55643 11.5009 7.49441 11.488 7.43655 11.4628C7.3787 11.4375 7.32615 11.4006 7.28192 11.354L1.56763 5.35404C1.52329 5.30759 1.4881 5.25242 1.4641 5.19167C1.44009 5.13093 1.42773 5.06581 1.42773 5.00004C1.42773 4.93427 1.44009 4.86915 1.4641 4.80841C1.4881 4.74766 1.52329 4.69248 1.56763 4.64604Z" fill="#9F9FBC"/>
</svg>
