<svg width="258" height="39" viewBox="0 0 258 39" fill="none" xmlns="http://www.w3.org/2000/svg">
<path d="M0 0.264652H7.11914L11.1683 27.4444L21.0134 0.264652H27.762L36.9719 26.3858L41.2593 0.264652H48.1667L41.0475 38.1099H34.3783L23.9775 8.41594L12.8092 38.1099H6.21932L0 0.264652Z" fill="white"/>
<path d="M59.7891 10.3214C68.2227 10.3214 72.4395 14.6264 72.4395 23.2365C72.4395 24.3833 72.3601 25.5301 72.2013 26.6769H53.7551C53.7551 30.5938 56.631 32.5522 62.3827 32.5522C65.188 32.5522 67.9934 32.2876 70.7987 31.7582V37.3159C68.3462 37.8452 65.3645 38.1099 61.8534 38.1099C51.779 38.1099 46.7418 33.3726 46.7418 23.8981C46.7418 14.847 51.0909 10.3214 59.7891 10.3214ZM53.7551 21.8073H65.6115V21.5956C65.6115 17.7493 63.6707 15.8262 59.7891 15.8262C56.084 15.8262 54.0727 17.8199 53.7551 21.8073Z" fill="white"/>
<path d="M82.0093 31.6789C83.6149 32.1905 85.4763 32.4463 87.5935 32.4463C91.8279 32.4463 93.9451 29.4558 93.9451 23.4746C93.9451 18.5874 92.119 16.1438 88.4668 16.1438C86.1026 16.1438 83.9501 16.6202 82.0093 17.5729V31.6789ZM74.9961 0.264652H82.0093V12.4386C84.1089 11.0272 86.4467 10.3214 89.0226 10.3214C96.9269 10.3214 100.879 14.7676 100.879 23.6599C100.879 33.2932 96.3535 38.1099 87.3024 38.1099C83.4914 38.1099 79.3893 37.7306 74.9961 36.9719V0.264652Z" fill="white"/>
<path d="M106.834 38.1099V0.264652H113.847L133.828 27.8414V0.264652H140.577V38.1099H133.564L113.582 9.95092V38.1099H106.834Z" fill="white"/>
<path d="M152.872 19.0814C152.872 27.8855 156.78 32.2876 164.596 32.2876C172.218 32.2876 176.029 27.8855 176.029 19.0814C176.029 10.4185 172.218 6.087 164.596 6.087C156.78 6.087 152.872 10.4185 152.872 19.0814ZM145.594 19.2402C145.594 6.4134 151.928 0 164.596 0C177.07 0 183.306 6.4134 183.306 19.2402C183.306 31.9964 177.07 38.3746 164.596 38.3746C152.492 38.3746 146.158 31.9964 145.594 19.2402Z" fill="white"/>
<path d="M224.369 0.264652L207.775 38.1099H200.233L184.353 0.264652H192.69L204.414 29.2441L216.112 0.264652H224.369Z" fill="white"/>
<path d="M225.183 38.1099H217.984L234.049 0.264652H241.591L258 38.1099H250.457L246.143 27.7885H233.572L235.981 21.7015H243.603L237.648 7.48965L225.183 38.1099Z" fill="white"/>
</svg>
