<svg width="132" height="31" viewBox="0 0 132 31" fill="none" xmlns="http://www.w3.org/2000/svg">
<path d="M0 0.117435H3.15899L4.95574 12.178L9.32431 0.117435H12.3189L16.4056 11.7082L18.3081 0.117435H21.3731L18.2141 16.9106H15.2548L10.6396 3.73442L5.68384 16.9106H2.75971L0 0.117435Z" fill="white"/>
<path d="M26.5304 4.57995C30.2726 4.57995 32.1438 6.49022 32.1438 10.3108C32.1438 10.8196 32.1085 11.3285 32.0381 11.8374H23.8529C23.8529 13.5754 25.129 14.4445 27.6812 14.4445C28.926 14.4445 30.1708 14.327 31.4157 14.0922V16.5583C30.3274 16.7932 29.0043 16.9106 27.4464 16.9106C22.976 16.9106 20.7408 14.8085 20.7408 10.6044C20.7408 6.58809 22.6707 4.57995 26.5304 4.57995ZM23.8529 9.67662H29.1139V9.58267C29.1139 7.87595 28.2527 7.02259 26.5304 7.02259C24.8863 7.02259 23.9938 7.90727 23.8529 9.67662Z" fill="white"/>
<path d="M36.3902 14.0569C37.1026 14.284 37.9286 14.3975 38.8681 14.3975C40.747 14.3975 41.6865 13.0705 41.6865 10.4165C41.6865 8.24783 40.8762 7.16352 39.2556 7.16352C38.2065 7.16352 37.2514 7.3749 36.3902 7.79766V14.0569ZM33.2782 0.117435H36.3902V5.51943C37.3218 4.89311 38.3592 4.57995 39.5022 4.57995C43.0096 4.57995 44.7633 6.55285 44.7633 10.4987C44.7633 14.7733 42.7551 16.9106 38.7389 16.9106C37.0478 16.9106 35.2276 16.7423 33.2782 16.4056V0.117435Z" fill="white"/>
<path d="M47.4056 16.9106V0.117435H50.5176L59.3839 12.3541V0.117435H62.3785V16.9106H59.2665L50.4001 4.41554V16.9106H47.4056Z" fill="white"/>
<path d="M67.834 8.46704C67.834 12.3737 69.5681 14.327 73.0364 14.327C76.4185 14.327 78.1096 12.3737 78.1096 8.46704C78.1096 4.62301 76.4185 2.701 73.0364 2.701C69.5681 2.701 67.834 4.62301 67.834 8.46704ZM64.6046 8.5375C64.6046 2.84583 67.4152 0 73.0364 0C78.5715 0 81.339 2.84583 81.339 8.5375C81.339 14.1979 78.5715 17.028 73.0364 17.028C67.6657 17.028 64.8551 14.1979 64.6046 8.5375Z" fill="white"/>
<path d="M99.5597 0.117435L92.1966 16.9106H88.8497L81.8036 0.117435H85.5028L90.7051 12.9765L95.8957 0.117435H99.5597Z" fill="white"/>
<path d="M99.9209 16.9106H96.7267L103.855 0.117435H107.202L114.483 16.9106H111.136L109.222 12.3306H103.644L104.712 9.62964H108.094L105.452 3.3234L99.9209 16.9106Z" fill="white"/>
<path d="M1.44686 27.9725C1.76622 28.0743 2.15403 28.1252 2.61027 28.1252C3.83861 28.1252 4.45278 27.425 4.45278 26.0247C4.45278 24.842 3.89652 24.2507 2.78399 24.2507C2.27862 24.2507 1.83291 24.3454 1.44686 24.5349V27.9725ZM0.472958 21.4079H1.44686V23.6716C1.86449 23.4961 2.31196 23.4084 2.78926 23.4084C4.53701 23.4084 5.41088 24.2928 5.41088 26.0616C5.41088 27.9778 4.49314 28.9359 2.65765 28.9359C1.86449 28.9359 1.13626 28.8604 0.472958 28.7095V21.4079Z" fill="#9F9FBC"/>
<path d="M6.06892 23.4084H7.12705L8.69055 27.7251L10.3067 23.4084H11.3385L9.04326 29.0991C8.63615 30.1028 8.02549 30.7293 7.21128 30.9785L6.83751 30.2888C7.45519 30.0186 7.90441 29.5781 8.18517 28.9675L6.06892 23.4084Z" fill="#9F9FBC"/>
<path d="M80.6199 25.1995C80.6243 25.2758 80.627 25.3521 80.628 25.4284C80.6264 25.5582 80.6199 25.6879 80.6086 25.8172C81.2068 25.1253 81.6732 24.3989 81.893 23.6861C82.2596 22.4969 81.9167 21.6047 81.1041 21.1214C80.3699 20.6847 79.2389 20.5916 77.874 20.8721C77.8972 20.8831 77.9202 20.8943 77.9431 20.9057C78.0941 20.988 78.2408 21.0778 78.3828 21.1748C78.4283 21.2083 78.4733 21.2425 78.5177 21.2774C79.408 21.2037 80.1482 21.3253 80.6578 21.6284C81.3891 22.0633 81.6663 22.8297 81.3596 23.8242C81.2202 24.2763 80.9584 24.7405 80.6199 25.1995Z" fill="#9F9FBC"/>
<path d="M71.2276 25.0827C70.851 25.603 70.5499 26.1345 70.3885 26.6581C70.0218 27.8473 70.3643 28.7414 71.1769 29.2247C71.6872 29.5282 72.3982 29.6562 73.2351 29.6215C75.9094 29.5534 77.8864 27.9511 77.8864 27.9511L77.582 27.463C77.582 27.463 75.26 29.1543 72.7051 29.0455C72.287 28.989 71.9111 28.8889 71.6232 28.7177C70.8918 28.2827 70.6171 27.5145 70.9237 26.52C70.9962 26.2849 71.103 26.0459 71.2318 25.8068C71.2209 25.6809 71.2146 25.5547 71.2129 25.4284C71.2139 25.3131 71.2188 25.1978 71.2276 25.0827Z" fill="#9F9FBC"/>
<path d="M75.9167 30.5596C76.0674 30.5738 76.2187 30.5813 76.37 30.5822C77.0473 30.5822 77.718 30.4489 78.3437 30.1899C78.9694 29.9309 79.5379 29.5513 80.0169 29.0727C80.4958 28.5941 80.8756 28.026 81.1348 27.4007C81.394 26.7754 81.5274 26.1052 81.5274 25.4284C81.5273 24.0615 80.9839 22.7507 80.0168 21.7842C79.0496 20.8178 77.7378 20.2748 76.37 20.2748C76.2217 20.276 76.0734 20.2835 75.9257 20.2974C75.9457 20.2982 75.9657 20.2991 75.9857 20.3002C76.1568 20.3173 76.3269 20.343 76.4955 20.3771C76.664 20.4114 76.8306 20.454 76.9948 20.5048C77.1591 20.5556 77.3208 20.6145 77.4792 20.6814C77.6375 20.7483 77.7923 20.8233 77.9431 20.9057C78.0941 20.988 78.2408 21.0778 78.3828 21.1748C78.5247 21.2719 78.6618 21.3758 78.7934 21.4865C78.9248 21.5972 79.0506 21.7143 79.1704 21.8376C79.2902 21.9608 79.4038 22.09 79.5107 22.2246C79.6176 22.3592 79.7177 22.4991 79.8107 22.6437C79.9035 22.7884 79.9891 22.9375 80.067 23.0907C80.145 23.2438 80.2153 23.4007 80.2777 23.5608C80.34 23.721 80.3942 23.8842 80.4402 24.0498C80.4861 24.2153 80.5238 24.3831 80.553 24.5524C80.5823 24.7217 80.6031 24.8924 80.6153 25.0638C80.6239 25.1851 80.628 25.3068 80.628 25.4284C80.628 25.6002 80.6196 25.7718 80.6024 25.9427C80.5853 26.1137 80.5596 26.2838 80.5254 26.4522C80.4912 26.6206 80.4487 26.7873 80.3979 26.9515C80.3471 27.1156 80.2881 27.277 80.2212 27.4352C80.1542 27.5935 80.0793 27.7484 79.9969 27.8992C79.9144 28.05 79.8245 28.1965 79.7274 28.3383C79.6303 28.4802 79.5262 28.6171 79.4155 28.7485C79.3047 28.8799 79.1874 29.0056 79.064 29.1253C78.9406 29.245 78.8113 29.3585 78.6766 29.4653C78.5419 29.5722 78.402 29.6722 78.2573 29.7651C78.1126 29.8579 77.9634 29.9434 77.8103 30.0213C77.657 30.0993 77.4999 30.1695 77.3396 30.2318C77.1794 30.294 77.0161 30.3482 76.8505 30.3942C76.6848 30.4402 76.517 30.4779 76.3475 30.5072C76.2047 30.5306 76.061 30.5482 75.9167 30.5596Z" fill="#9F9FBC"/>
<path d="M77.5494 26.694C76.9557 26.694 76.4744 27.1751 76.4744 27.7683C76.4744 28.3615 76.9557 28.8426 77.5494 28.8426C78.143 28.8426 78.6244 28.3615 78.6244 27.7683C78.6244 27.1751 78.143 26.694 77.5494 26.694Z" fill="#9F9FBC"/>
<path d="M18.8448 24.7914H22.7087V25.8257H18.8448V24.7914Z" fill="#9F9FBC"/>
<path fill-rule="evenodd" clip-rule="evenodd" d="M22.9703 21.8785V23.1031H17.9412V27.621H22.9703V28.8455H16.7404V21.8785H22.9703Z" fill="#9F9FBC"/>
<path fill-rule="evenodd" clip-rule="evenodd" d="M59.6659 22.1401C60.0892 21.9166 60.6389 21.8726 60.8608 21.8785L65.878 21.8785V23.1031H60.8608C60.5457 23.1031 59.9869 23.2398 59.9869 23.9354C59.9869 24.6725 60.5814 24.7914 60.8608 24.7914H64.1065C64.5583 24.7914 65.0599 24.8682 65.444 25.1124C65.9242 25.4176 66.2228 25.9034 66.2228 26.7947C66.2228 27.686 65.8256 28.2893 65.298 28.5762C64.8833 28.8018 64.2549 28.8495 64.0233 28.8453L58.8397 28.8455V27.621H64.0138C64.6189 27.6203 65.0695 27.3586 65.0695 26.7326C65.0695 25.9756 64.5286 25.8257 64.1065 25.8257L60.8489 25.8257C60.6025 25.8238 60.039 25.7624 59.66 25.5285C59.1785 25.2313 58.7267 24.7022 58.7267 23.8343C58.7267 22.9664 59.1369 22.4195 59.6659 22.1401Z" fill="#9F9FBC"/>
<path fill-rule="evenodd" clip-rule="evenodd" d="M50.2082 21.8667H51.4565V25.9208C51.4511 26.2331 51.5396 26.9648 52.0629 27.3297C52.6684 27.7519 53.4402 27.7484 53.9364 27.7461L53.9414 27.7461C53.9569 27.7461 53.9727 27.7458 53.9889 27.7459C54.0051 27.7458 54.021 27.7458 54.0365 27.7458L54.0414 27.7461C54.5377 27.7484 55.3094 27.7519 55.9149 27.3297C56.4382 26.9648 56.527 26.2331 56.5215 25.9208L56.5213 21.8667H57.7696V26.0754C57.7696 26.7055 57.5995 27.5182 56.9315 28.1381C56.2113 28.8064 55.0389 28.9275 54.0365 28.9344C54.0207 28.9344 54.0048 28.9347 53.9889 28.9346C53.973 28.9347 53.9572 28.9347 53.9414 28.9347C52.939 28.9279 51.7665 28.8064 51.0464 28.1381C50.3784 27.5182 50.2082 26.7055 50.2082 26.0754V21.8667Z" fill="#9F9FBC"/>
<path fill-rule="evenodd" clip-rule="evenodd" d="M23.9155 21.8785H25.5681L28.2372 24.4644L30.8647 21.8785H32.44L28.9743 25.2253L32.7372 28.8455H31.043L28.1123 25.998L25.2055 28.8455H23.6361L27.3812 25.2253L23.9155 21.8785Z" fill="#9F9FBC"/>
<path fill-rule="evenodd" clip-rule="evenodd" d="M37.6652 21.8786V21.8812C38.0439 21.8958 38.7347 21.9773 39.2524 22.2887C39.9918 22.7336 40.4056 23.2101 40.685 23.9532C40.9109 24.5538 40.9093 25.0563 40.9087 25.2731C40.9086 25.284 40.9086 25.2941 40.9086 25.3035L40.9085 25.4215C40.9085 25.4309 40.9086 25.441 40.9087 25.4519C40.9093 25.6687 40.9109 26.1712 40.685 26.7718C40.4056 27.5148 39.9918 27.9914 39.2524 28.4363C38.7338 28.7483 38.0412 28.8295 37.663 28.8439V28.8464H35.6657V28.8438C35.287 28.8292 34.5961 28.7477 34.0785 28.4363C33.339 27.9914 32.9252 27.5149 32.6458 26.7718C32.42 26.1712 32.4215 25.6687 32.4222 25.4519C32.4222 25.4455 32.4222 25.4393 32.4223 25.4334L32.4221 25.2907C32.4221 25.2851 32.4222 25.2792 32.4222 25.2731C32.4216 25.0563 32.42 24.5538 32.6458 23.9532C32.9252 23.2101 33.339 22.7336 34.0785 22.2887C34.5971 21.9767 35.2896 21.8955 35.6679 21.8811V21.8786H37.6652ZM39.6959 25.4334V25.291C39.6935 24.9467 39.5917 24.2537 39.149 23.7877C38.701 23.316 38.262 23.0912 37.5344 23.0912H35.7986C35.0711 23.0912 34.6299 23.316 34.1819 23.7877C33.7337 24.2594 33.635 24.9638 33.635 25.3035L33.6348 25.4215C33.6348 25.7612 33.7337 26.4655 34.1819 26.9373C34.6296 27.4087 35.0682 27.6334 35.7948 27.6338L37.5323 27.6338C38.2598 27.6338 38.701 27.409 39.149 26.9373C39.592 26.471 39.6936 25.7774 39.6959 25.4334Z" fill="#9F9FBC"/>
<path fill-rule="evenodd" clip-rule="evenodd" d="M45.9638 21.8667H42.0047V21.8785H41.9215V28.8455L45.9043 28.8464V27.6329L43.1223 27.6245V23.0912L45.9638 23.0912C46.6913 23.0912 47.1303 23.316 47.5784 23.7877C48.0211 24.2538 48.1228 24.9469 48.1252 25.2911V25.4334C48.1229 25.7774 48.0214 26.471 47.5784 26.9373C47.1303 27.409 46.6892 27.6338 45.9616 27.6338L45.9043 27.6329V28.8464L46.0924 28.8464V28.8439C46.4706 28.8295 47.1631 28.7483 47.6818 28.4363C48.4212 27.9914 48.835 27.5149 49.1144 26.7718C49.3402 26.1712 49.3387 25.6687 49.338 25.4519C49.338 25.441 49.338 25.4309 49.338 25.4215L49.3379 25.3035C49.3379 25.2942 49.338 25.2841 49.338 25.2733C49.3387 25.0566 49.3402 24.5538 49.1144 23.9532C48.835 23.2101 48.4212 22.7336 47.6818 22.2887C47.1641 21.9773 46.4733 21.8958 46.0946 21.8812V21.8786H45.9632L45.9638 21.8667Z" fill="#9F9FBC"/>
<path d="M112.325 22.2724L108.37 28.8451H109.748L112.909 23.4839L114.483 26.1158H112.325L111.754 27.0905H115.054L116.084 28.8451H117.533L113.578 22.2724C113.453 22.0774 113.241 21.7989 112.951 21.7989C112.663 21.7989 112.465 22.0752 112.326 22.27L112.325 22.2724Z" fill="#9F9FBC"/>
<path fill-rule="evenodd" clip-rule="evenodd" d="M125.448 22.1443C125.871 21.921 126.42 21.877 126.642 21.8829L131.656 21.883V23.1067H126.633C126.317 23.1091 125.769 23.2495 125.769 23.9383C125.769 24.6697 126.354 24.792 126.636 24.7937H129.885C130.337 24.7937 130.838 24.8705 131.222 25.1145C131.702 25.4196 132 25.905 132 26.7957C132 27.6863 131.603 28.2893 131.076 28.576C130.662 28.8014 130.034 28.849 129.802 28.8448L124.622 28.8451V27.6214H129.79C130.396 27.6214 130.848 27.36 130.848 26.7336C130.848 25.9771 130.307 25.8274 129.885 25.8274L126.642 25.8274C126.639 25.8274 126.637 25.8274 126.634 25.8274H126.63C126.384 25.8254 125.821 25.7641 125.442 25.5303C124.961 25.2333 124.509 24.7046 124.509 23.8373C124.509 22.97 124.919 22.4235 125.448 22.1443Z" fill="#9F9FBC"/>
<path fill-rule="evenodd" clip-rule="evenodd" d="M92.6481 21.8824V28.8451L97.7726 28.8451C98.597 28.8451 99.012 28.7337 99.4994 28.3159C99.8057 28.0096 100.14 27.667 100.14 26.7424C100.14 25.5866 99.2905 25.2663 99.0677 25.1827C99.8754 24.8485 100.029 24.2358 100.029 23.7206C100.029 23.7178 100.029 23.7148 100.029 23.7116C100.029 23.6189 100.029 23.3532 99.8893 22.9547C99.4298 21.9799 98.3993 21.8824 97.703 21.8824H92.6481ZM93.8736 23.0803V27.6475H97.4524C98.1347 27.6475 98.8867 27.511 98.8867 26.7424C98.8867 25.9737 98.274 25.8372 97.9537 25.8372H94.7509V24.7928H97.9537C98.274 24.7928 98.7474 24.6536 98.7474 23.9573C98.7474 23.275 98.3157 23.1079 97.5777 23.1079L93.8736 23.0803Z" fill="#9F9FBC"/>
<path d="M101.115 21.8824H102.34V28.8451H101.115V21.8824Z" fill="#9F9FBC"/>
<path fill-rule="evenodd" clip-rule="evenodd" d="M106.936 28.8451V23.1079H109.553V21.8824H103.064V23.1079H105.71V28.8451H106.936Z" fill="#9F9FBC"/>
<path fill-rule="evenodd" clip-rule="evenodd" d="M119.329 21.8824H118.104V28.8451L124.036 28.8451V27.6197H119.329V21.8824Z" fill="#9F9FBC"/>
<path fill-rule="evenodd" clip-rule="evenodd" d="M83.9587 21.8824V28.8451H85.1842V23.0939H88.9301C89.4035 23.0939 90.2948 23.2193 90.2948 24.4308C90.2948 25.7397 89.4592 25.8651 88.9301 25.8651H86.0615V26.9095H88.6644L90.4453 28.8451H92.1468L90.0715 26.7424C91.2969 26.2411 91.5063 25.141 91.5063 24.4308C91.5063 23.7763 91.4236 23.2183 90.8518 22.6066C90.253 21.966 89.5149 21.8824 88.4984 21.8824L83.9587 21.8824Z" fill="#9F9FBC"/>
</svg>
