<svg width="40" height="40" viewBox="0 0 40 40" fill="none" xmlns="http://www.w3.org/2000/svg">
<path d="M36.2501 20C36.2491 19.6923 36.163 19.3907 36.0012 19.1289C35.8394 18.8671 35.6082 18.6552 35.3334 18.5167L25.1334 13.4167V6.75003C25.1334 5.38859 24.5926 4.0829 23.6299 3.12022C22.6672 2.15753 21.3615 1.6167 20.0001 1.6167C18.6386 1.6167 17.3329 2.15753 16.3702 3.12022C15.4076 4.0829 14.8667 5.38859 14.8667 6.75003V13.4167L4.66672 18.5167C4.39187 18.6552 4.16073 18.8671 3.99893 19.1289C3.83713 19.3907 3.75099 19.6923 3.75006 20V25.55C3.7478 25.8215 3.8119 26.0895 3.93681 26.3306C4.06171 26.5717 4.24362 26.7786 4.46672 26.9334C4.68856 27.0854 4.94387 27.1814 5.21088 27.2133C5.47788 27.2453 5.74864 27.2121 6.00006 27.1167L14.8667 23.7834V30L11.8334 31C11.5024 31.1118 11.2148 31.3249 11.0115 31.609C10.8081 31.8931 10.6992 32.234 10.7001 32.5834V36.6667C10.701 36.8872 10.7456 37.1054 10.8315 37.3085C10.9173 37.5116 11.0426 37.6957 11.2001 37.85C11.5105 38.1579 11.9295 38.3315 12.3667 38.3334H27.6501C28.0921 38.3334 28.516 38.1578 28.8286 37.8452C29.1411 37.5327 29.3167 37.1087 29.3167 36.6667V32.5C29.3176 32.1506 29.2087 31.8098 29.0053 31.5257C28.8019 31.2415 28.5144 31.0285 28.1834 30.9167L25.1334 30V23.8L34.0001 27.1334C34.2515 27.2288 34.5222 27.2619 34.7892 27.23C35.0562 27.1981 35.3116 27.102 35.5334 26.95C35.7565 26.7953 35.9384 26.5884 36.0633 26.3473C36.1882 26.1062 36.2523 25.8382 36.2501 25.5667V20ZM24.0667 19.8334C23.813 19.7351 23.5391 19.7004 23.2689 19.7324C22.9988 19.7643 22.7405 19.862 22.5167 20.0167C22.2959 20.1699 22.1155 20.3741 21.9907 20.6121C21.8659 20.8501 21.8005 21.1147 21.8001 21.3834V31.1167C21.8003 31.4682 21.9117 31.8106 22.1182 32.0949C22.3248 32.3793 22.6159 32.5911 22.9501 32.7L25.9667 33.7V35H14.0167V33.7L17.0334 32.7C17.3675 32.5911 17.6587 32.3793 17.8652 32.0949C18.0718 31.8106 18.1831 31.4682 18.1834 31.1167V21.3834C18.1829 21.1147 18.1175 20.8501 17.9928 20.6121C17.868 20.3741 17.6875 20.1699 17.4667 20.0167C17.243 19.862 16.9847 19.7643 16.7145 19.7324C16.4443 19.7004 16.1704 19.7351 15.9167 19.8334L7.06672 23.1667V21.0334L17.2501 15.9334C17.528 15.7972 17.7626 15.5863 17.9274 15.3243C18.0923 15.0623 18.1809 14.7596 18.1834 14.45V6.80003C18.1834 6.32264 18.373 5.86481 18.7106 5.52724C19.0482 5.18968 19.506 5.00003 19.9834 5.00003C20.4608 5.00003 20.9186 5.18968 21.2562 5.52724C21.5937 5.86481 21.7834 6.32264 21.7834 6.80003V14.45C21.7859 14.7596 21.8745 15.0623 22.0394 15.3243C22.2042 15.5863 22.4388 15.7972 22.7167 15.9334L32.9001 21.0334V23.15L24.0667 19.8334Z" fill="#DA9B1A"/>
</svg>
