<svg width="40" height="40" viewBox="0 0 40 40" fill="none" xmlns="http://www.w3.org/2000/svg">
<path d="M21.1834 31.3167C21.0214 31.1695 20.8354 31.0511 20.6334 30.9667C20.3299 30.839 19.9954 30.8042 19.672 30.8665C19.3487 30.9288 19.0511 31.0854 18.8167 31.3167C18.5122 31.6361 18.3395 32.0587 18.3334 32.5C18.3321 32.7194 18.3742 32.9368 18.4571 33.1399C18.5401 33.3429 18.6623 33.5276 18.8167 33.6833C18.9787 33.8306 19.1648 33.9489 19.3667 34.0333C19.6696 34.1546 20.0014 34.1843 20.321 34.1187C20.6406 34.0531 20.9339 33.8952 21.1646 33.6645C21.3953 33.4339 21.5532 33.1405 21.6187 32.8209C21.6843 32.5014 21.6546 32.1696 21.5334 31.8667C21.4541 31.6621 21.3351 31.4752 21.1834 31.3167ZM20.0001 20.8333C19.558 20.8333 19.1341 21.0089 18.8216 21.3215C18.509 21.6341 18.3334 22.058 18.3334 22.5V27.5C18.3334 27.942 18.509 28.366 18.8216 28.6785C19.1341 28.9911 19.558 29.1667 20.0001 29.1667C20.4421 29.1667 20.866 28.9911 21.1786 28.6785C21.4911 28.366 21.6667 27.942 21.6667 27.5V22.5C21.6667 22.058 21.4911 21.6341 21.1786 21.3215C20.866 21.0089 20.4421 20.8333 20.0001 20.8333ZM30.7001 12.85C29.6806 10.5097 27.9216 8.56834 25.693 7.32361C23.4643 6.07888 20.8888 5.59947 18.3615 5.95889C15.8342 6.31831 13.4946 7.49672 11.7013 9.31345C9.90795 11.1302 8.75999 13.4849 8.43339 16.0167C6.84437 16.3972 5.45043 17.3481 4.51629 18.6887C3.58215 20.0293 3.17287 21.6662 3.36617 23.2887C3.55947 24.9112 4.34189 26.4062 5.56484 27.4898C6.78779 28.5734 8.36611 29.1701 10.0001 29.1667H13.3334C13.7754 29.1667 14.1993 28.9911 14.5119 28.6785C14.8245 28.366 15.0001 27.942 15.0001 27.5C15.0001 27.058 14.8245 26.6341 14.5119 26.3215C14.1993 26.0089 13.7754 25.8333 13.3334 25.8333H10.0001C9.11601 25.8333 8.26816 25.4822 7.64304 24.857C7.01792 24.2319 6.66673 23.3841 6.66673 22.5C6.66673 21.616 7.01792 20.7681 7.64304 20.143C8.26816 19.5179 9.11601 19.1667 10.0001 19.1667C10.4421 19.1667 10.866 18.9911 11.1786 18.6785C11.4911 18.366 11.6667 17.942 11.6667 17.5C11.671 15.5288 12.3739 13.6229 13.6505 12.121C14.9271 10.619 16.6949 9.61827 18.6396 9.29647C20.5844 8.97468 22.5803 9.35269 24.2727 10.3634C25.9651 11.374 27.2444 12.9519 27.8834 14.8167C27.9812 15.1 28.1535 15.3517 28.3823 15.5452C28.6111 15.7388 28.8878 15.8671 29.1834 15.9167C30.4051 16.1421 31.499 16.8142 32.2523 17.8021C33.0055 18.79 33.3639 20.0229 33.2578 21.2607C33.1518 22.4984 32.5887 23.6523 31.6784 24.4977C30.768 25.343 29.5756 25.8191 28.3334 25.8333H26.6667C26.2247 25.8333 25.8008 26.0089 25.4882 26.3215C25.1757 26.6341 25.0001 27.058 25.0001 27.5C25.0001 27.942 25.1757 28.366 25.4882 28.6785C25.8008 28.9911 26.2247 29.1667 26.6667 29.1667H28.3334C30.3323 29.1612 32.2627 28.4373 33.7724 27.1272C35.2821 25.817 36.2705 24.0078 36.5575 22.0296C36.8444 20.0513 36.4107 18.0359 35.3354 16.3508C34.2602 14.6657 32.615 13.4232 30.7001 12.85Z" fill="#DA9B1A"/>
</svg>
