<svg width="40" height="40" viewBox="0 0 40 40" fill="none" xmlns="http://www.w3.org/2000/svg">
<path d="M6.03314 28.8C6.19669 29.2111 6.51685 29.5403 6.92317 29.7154C7.3295 29.8904 7.78872 29.8969 8.19981 29.7333C8.61089 29.5698 8.94017 29.2496 9.11521 28.8433C9.29024 28.437 9.29669 27.9777 9.13314 27.5667L7.26647 22.8666L18.3331 20.4166V28.3333C18.3331 28.7753 18.5087 29.1993 18.8213 29.5118C19.1339 29.8244 19.5578 30 19.9998 30C20.4418 30 20.8658 29.8244 21.1783 29.5118C21.4909 29.1993 21.6665 28.7753 21.6665 28.3333V20.4166L32.7331 22.8666L30.8665 27.5667C30.7853 27.7702 30.745 27.9877 30.748 28.2068C30.751 28.4259 30.7971 28.6423 30.8838 28.8435C30.9705 29.0448 31.0961 29.2269 31.2532 29.3796C31.4104 29.5323 31.5961 29.6525 31.7998 29.7333C31.9961 29.8109 32.2054 29.8505 32.4165 29.85C32.7503 29.8503 33.0765 29.7504 33.3528 29.5632C33.6292 29.376 33.843 29.1101 33.9665 28.8L36.5498 22.2833C36.6385 22.0579 36.677 21.8159 36.6626 21.5741C36.6482 21.3323 36.5813 21.0966 36.4665 20.8833C36.3551 20.6708 36.1992 20.4849 36.0093 20.3382C35.8195 20.1915 35.6002 20.0875 35.3665 20.0333L29.9998 18.85V11.6666C29.9998 11.2246 29.8242 10.8007 29.5117 10.4881C29.1991 10.1756 28.7752 9.99998 28.3331 9.99998H24.9998V4.99998C24.9998 4.55795 24.8242 4.13403 24.5117 3.82147C24.1991 3.50891 23.7752 3.33331 23.3331 3.33331H16.6665C16.2244 3.33331 15.8005 3.50891 15.488 3.82147C15.1754 4.13403 14.9998 4.55795 14.9998 4.99998V9.99998H11.6665C11.2244 9.99998 10.8005 10.1756 10.488 10.4881C10.1754 10.8007 9.99981 11.2246 9.99981 11.6666V18.85L4.63314 20C4.39941 20.0541 4.18013 20.1581 3.99029 20.3048C3.80044 20.4515 3.64451 20.6375 3.53314 20.85C3.41836 21.0633 3.35144 21.299 3.33705 21.5408C3.32266 21.7826 3.36114 22.0246 3.44981 22.25L6.03314 28.8ZM18.3331 6.66665H21.6665V9.99998H18.3331V6.66665ZM13.3331 13.3333H26.6665V18.1L20.3665 16.6666H20.1998H19.9998H19.7998H19.6331L13.3331 18.1V13.3333ZM34.5165 32.1333C33.9317 32.3125 33.3717 32.5645 32.8498 32.8833C32.3189 33.1938 31.7149 33.3574 31.0998 33.3574C30.4847 33.3574 29.8808 33.1938 29.3498 32.8833C28.1952 32.232 26.8921 31.8898 25.5665 31.8898C24.2409 31.8898 22.9377 32.232 21.7831 32.8833C21.2449 33.1902 20.636 33.3516 20.0165 33.3516C19.3969 33.3516 18.788 33.1902 18.2498 32.8833C17.0942 32.2351 15.7915 31.8947 14.4665 31.8947C13.1415 31.8947 11.8387 32.2351 10.6831 32.8833C10.1522 33.1938 9.54821 33.3574 8.93314 33.3574C8.31808 33.3574 7.71408 33.1938 7.18314 32.8833C6.6612 32.5645 6.10125 32.3125 5.51647 32.1333C5.29471 32.0545 5.05876 32.0235 4.82416 32.0424C4.58956 32.0613 4.36163 32.1297 4.15537 32.2431C3.9491 32.3564 3.76919 32.5122 3.62747 32.7001C3.48575 32.888 3.38544 33.1038 3.33314 33.3333C3.20872 33.7554 3.2563 34.2096 3.4655 34.5968C3.67469 34.984 4.02853 35.2727 4.44981 35.4C4.78541 35.4909 5.1056 35.6313 5.39981 35.8167C6.41099 36.41 7.56076 36.7262 8.73314 36.7333C9.95081 36.7335 11.1468 36.4115 12.1998 35.8C12.8531 35.4396 13.587 35.2506 14.3331 35.2506C15.0792 35.2506 15.8132 35.4396 16.4665 35.8C17.512 36.3978 18.6955 36.7123 19.8998 36.7123C21.1042 36.7123 22.2876 36.3978 23.3331 35.8C23.9864 35.4396 24.7204 35.2506 25.4665 35.2506C26.2126 35.2506 26.9465 35.4396 27.5998 35.8C28.6328 36.4165 29.8134 36.7421 31.0165 36.7421C32.2195 36.7421 33.4001 36.4165 34.4331 35.8C34.7274 35.6147 35.0475 35.4742 35.3831 35.3833C35.6049 35.3384 35.8153 35.2489 36.0013 35.1201C36.1874 34.9913 36.3453 34.8259 36.4654 34.6341C36.5854 34.4423 36.6652 34.228 36.6998 34.0044C36.7343 33.7808 36.723 33.5524 36.6665 33.3333C36.6135 33.1078 36.5141 32.8957 36.3746 32.7107C36.2351 32.5258 36.0585 32.3719 35.8562 32.259C35.6539 32.1461 35.4303 32.0766 35.1996 32.0549C34.9689 32.0333 34.7363 32.06 34.5165 32.1333Z" fill="#DA9B1A"/>
</svg>
