<svg width="7" height="9" viewBox="0 0 7 9" fill="none" xmlns="http://www.w3.org/2000/svg">
<path d="M0.74331 3.85715C0.261163 3.85715 3.75624e-09 3.27456 0.36161 2.91295L3.01342 0.180781C3.11386 0.0602439 3.27458 -2.44631e-05 3.41521 -2.44631e-05C3.55583 -2.44631e-05 3.69646 0.0602439 3.79691 0.180781L6.44871 2.91295C6.81032 3.27456 6.54916 3.85715 6.06701 3.85715H0.74331ZM6.06701 5.14287C6.54916 5.14287 6.81032 5.74556 6.44871 6.10717L3.79691 8.83933C3.69646 8.95987 3.55583 9.00005 3.41521 9.00005C3.25449 9.00005 3.11386 8.95987 3.01342 8.83933L0.36161 6.10717C3.75624e-09 5.74556 0.261163 5.14287 0.74331 5.14287H6.06701Z" fill="#CBD0DD"/>
</svg>
