<svg width="40" height="40" viewBox="0 0 40 40" fill="none" xmlns="http://www.w3.org/2000/svg">
<path d="M23.3332 15H16.6665C16.2245 15 15.8006 15.1756 15.488 15.4882C15.1754 15.8007 14.9998 16.2246 14.9998 16.6667V36.6667C14.9998 37.1087 15.1754 37.5326 15.488 37.8452C15.8006 38.1577 16.2245 38.3333 16.6665 38.3333H23.3332C23.7752 38.3333 24.1991 38.1577 24.5117 37.8452C24.8242 37.5326 24.9998 37.1087 24.9998 36.6667V16.6667C24.9998 16.2246 24.8242 15.8007 24.5117 15.4882C24.1991 15.1756 23.7752 15 23.3332 15ZM21.6665 35H18.3332V18.3333H21.6665V35ZM36.6665 1.66666H29.9998C29.5578 1.66666 29.1339 1.84226 28.8213 2.15482C28.5088 2.46738 28.3332 2.8913 28.3332 3.33333V36.6667C28.3332 37.1087 28.5088 37.5326 28.8213 37.8452C29.1339 38.1577 29.5578 38.3333 29.9998 38.3333H36.6665C37.1085 38.3333 37.5325 38.1577 37.845 37.8452C38.1576 37.5326 38.3332 37.1087 38.3332 36.6667V3.33333C38.3332 2.8913 38.1576 2.46738 37.845 2.15482C37.5325 1.84226 37.1085 1.66666 36.6665 1.66666ZM34.9998 35H31.6665V5H34.9998V35ZM9.99984 25H3.33317C2.89114 25 2.46722 25.1756 2.15466 25.4882C1.8421 25.8007 1.6665 26.2246 1.6665 26.6667V36.6667C1.6665 37.1087 1.8421 37.5326 2.15466 37.8452C2.46722 38.1577 2.89114 38.3333 3.33317 38.3333H9.99984C10.4419 38.3333 10.8658 38.1577 11.1783 37.8452C11.4909 37.5326 11.6665 37.1087 11.6665 36.6667V26.6667C11.6665 26.2246 11.4909 25.8007 11.1783 25.4882C10.8658 25.1756 10.4419 25 9.99984 25ZM8.33317 35H4.99984V28.3333H8.33317V35Z" fill="#DA9B1A"/>
</svg>
