<svg width="132" height="31" viewBox="0 0 132 31" fill="none" xmlns="http://www.w3.org/2000/svg">
<path d="M0 0.117434H3.15898L4.95572 12.1779L9.32428 0.117434H12.3189L16.4056 11.7082L18.308 0.117434H21.373L18.2141 16.9105H15.2547L10.6395 3.73441L5.68382 16.9105H2.7597L0 0.117434Z" fill="white"/>
<path d="M26.5303 4.57994C30.2725 4.57994 32.1436 6.4902 32.1436 10.3107C32.1436 10.8196 32.1084 11.3285 32.0379 11.8374H23.8528C23.8528 13.5754 25.1289 14.4444 27.6811 14.4444C28.9259 14.4444 30.1707 14.327 31.4155 14.0921V16.5582C30.3273 16.7931 29.0042 16.9105 27.4463 16.9105C22.9759 16.9105 20.7408 14.8085 20.7408 10.6043C20.7408 6.58806 22.6706 4.57994 26.5303 4.57994ZM23.8528 9.67658H29.1138V9.58263C29.1138 7.87592 28.2526 7.02257 26.5303 7.02257C24.8862 7.02257 23.9937 7.90724 23.8528 9.67658Z" fill="white"/>
<path d="M36.3901 14.0569C37.1025 14.2839 37.9284 14.3974 38.8679 14.3974C40.7469 14.3974 41.6863 13.0704 41.6863 10.4164C41.6863 8.2478 40.876 7.16349 39.2554 7.16349C38.2064 7.16349 37.2512 7.37487 36.3901 7.79763V14.0569ZM33.278 0.117434H36.3901V5.51941C37.3217 4.89309 38.359 4.57994 39.5021 4.57994C43.0094 4.57994 44.7631 6.55283 44.7631 10.4986C44.7631 14.7732 42.755 16.9105 38.7387 16.9105C37.0477 16.9105 35.2275 16.7422 33.278 16.4056V0.117434Z" fill="white"/>
<path d="M47.4054 16.9105V0.117434H50.5174L59.3837 12.3541V0.117434H62.3783V16.9105H59.2662L50.4 4.41553V16.9105H47.4054Z" fill="white"/>
<path d="M67.8338 8.46701C67.8338 12.3737 69.5679 14.327 73.0361 14.327C76.4182 14.327 78.1093 12.3737 78.1093 8.46701C78.1093 4.62299 76.4182 2.70099 73.0361 2.70099C69.5679 2.70099 67.8338 4.62299 67.8338 8.46701ZM64.6043 8.53747C64.6043 2.84582 67.4149 0 73.0361 0C78.5712 0 81.3387 2.84582 81.3387 8.53747C81.3387 14.1978 78.5712 17.028 73.0361 17.028C67.6655 17.028 64.8549 14.1978 64.6043 8.53747Z" fill="white"/>
<path d="M99.5593 0.117434L92.1962 16.9105H88.8493L81.8033 0.117434H85.5025L90.7048 12.9765L95.8954 0.117434H99.5593Z" fill="white"/>
<path d="M99.9206 16.9105H96.7264L103.855 0.117434H107.201L114.482 16.9105H111.136L109.221 12.3306H103.643L104.712 9.62961H108.094L105.452 3.32339L99.9206 16.9105Z" fill="white"/>
<path d="M1.44685 27.9724C1.76622 28.0742 2.15402 28.1251 2.61026 28.1251C3.83859 28.1251 4.45276 27.4249 4.45276 26.0246C4.45276 24.8419 3.8965 24.2506 2.78398 24.2506C2.27861 24.2506 1.8329 24.3453 1.44685 24.5348V27.9724ZM0.472956 21.4079H1.44685V23.6715C1.86448 23.496 2.31195 23.4083 2.78924 23.4083C4.53699 23.4083 5.41086 24.2927 5.41086 26.0615C5.41086 27.9777 4.49312 28.9358 2.65764 28.9358C1.86448 28.9358 1.13626 28.8603 0.472956 28.7094V21.4079Z" fill="#9F9FBC"/>
<path d="M6.0689 23.4083H7.12702L8.69052 27.725L10.3067 23.4083H11.3385L9.04322 29.099C8.63612 30.1027 8.02546 30.7292 7.21125 30.9783L6.83749 30.2887C7.45516 30.0185 7.90438 29.578 8.18514 28.9674L6.0689 23.4083Z" fill="#9F9FBC"/>
<path d="M80.6196 25.1994C80.624 25.2757 80.6267 25.352 80.6277 25.4283C80.6261 25.5581 80.6196 25.6878 80.6083 25.8171C81.2065 25.1252 81.6729 24.3989 81.8927 23.686C82.2593 22.4968 81.9164 21.6046 81.1038 21.1213C80.3696 20.6846 79.2386 20.5915 77.8738 20.8721C77.8969 20.8831 77.9199 20.8943 77.9428 20.9056C78.0938 20.9879 78.2405 21.0778 78.3825 21.1747C78.428 21.2082 78.473 21.2424 78.5174 21.2774C79.4077 21.2036 80.1479 21.3252 80.6575 21.6283C81.3888 22.0633 81.666 22.8296 81.3593 23.8241C81.2199 24.2762 80.9581 24.7404 80.6196 25.1994Z" fill="#9F9FBC"/>
<path d="M71.2273 25.0826C70.8508 25.6029 70.5497 26.1344 70.3882 26.658C70.0215 27.8472 70.3641 28.7413 71.1767 29.2246C71.6869 29.5281 72.398 29.6561 73.2349 29.6214C75.9091 29.5533 77.8861 27.951 77.8861 27.951L77.5818 27.4629C77.5818 27.4629 75.2597 29.1542 72.7048 29.0454C72.2868 28.9889 71.9108 28.8888 71.623 28.7176C70.8916 28.2826 70.6168 27.5144 70.9235 26.5199C70.9959 26.2848 71.1028 26.0458 71.2316 25.8067C71.2206 25.6808 71.2143 25.5546 71.2126 25.4283C71.2136 25.313 71.2186 25.1977 71.2273 25.0826Z" fill="#9F9FBC"/>
<path d="M75.9164 30.5595C76.0671 30.5737 76.2184 30.5812 76.3698 30.5821C77.047 30.5821 77.7177 30.4488 78.3434 30.1898C78.9691 29.9308 79.5377 29.5512 80.0166 29.0726C80.4955 28.594 80.8753 28.0259 81.1345 27.4006C81.3937 26.7753 81.5271 26.1051 81.5271 25.4283C81.527 24.0615 80.9836 22.7506 80.0165 21.7841C79.0493 20.8177 77.7375 20.2747 76.3698 20.2747C76.2214 20.2759 76.0731 20.2834 75.9254 20.2973C75.9454 20.2981 75.9654 20.2991 75.9854 20.3001C76.1565 20.3172 76.3267 20.3429 76.4952 20.3771C76.6637 20.4113 76.8303 20.4539 76.9945 20.5048C77.1588 20.5555 77.3205 20.6144 77.4789 20.6813C77.6372 20.7483 77.792 20.8232 77.9428 20.9056C78.0938 20.9879 78.2405 21.0778 78.3825 21.1747C78.5244 21.2718 78.6615 21.3757 78.7931 21.4864C78.9245 21.5971 79.0504 21.7143 79.1701 21.8375C79.2899 21.9608 79.4035 22.0899 79.5104 22.2245C79.6173 22.3592 79.7174 22.499 79.8104 22.6436C79.9032 22.7883 79.9888 22.9374 80.0667 23.0906C80.1447 23.2437 80.215 23.4006 80.2774 23.5607C80.3397 23.7209 80.3939 23.8841 80.4399 24.0497C80.4858 24.2153 80.5235 24.383 80.5527 24.5523C80.582 24.7216 80.6028 24.8923 80.615 25.0637C80.6236 25.185 80.6277 25.3067 80.6277 25.4283C80.6277 25.6002 80.6193 25.7717 80.6021 25.9426C80.585 26.1136 80.5593 26.2837 80.5251 26.4521C80.4909 26.6205 80.4484 26.7872 80.3976 26.9514C80.3468 27.1155 80.2878 27.2769 80.2209 27.4351C80.1539 27.5934 80.079 27.7483 79.9966 27.8991C79.9141 28.0499 79.8242 28.1964 79.7271 28.3382C79.63 28.4801 79.5259 28.6169 79.4152 28.7484C79.3044 28.8798 79.1871 29.0055 79.0637 29.1252C78.9403 29.2449 78.8111 29.3584 78.6764 29.4652C78.5416 29.5721 78.4017 29.6721 78.257 29.765C78.1123 29.8578 77.9631 29.9433 77.81 30.0212C77.6567 30.0992 77.4996 30.1694 77.3393 30.2317C77.1791 30.2939 77.0159 30.3481 76.8502 30.3941C76.6846 30.4401 76.5167 30.4778 76.3472 30.5071C76.2045 30.5305 76.0607 30.5481 75.9164 30.5595Z" fill="#9F9FBC"/>
<path d="M77.5491 26.6939C76.9554 26.6939 76.4741 27.175 76.4741 27.7682C76.4741 28.3614 76.9554 28.8425 77.5491 28.8425C78.1427 28.8425 78.6241 28.3614 78.6241 27.7682C78.6241 27.175 78.1427 26.6939 77.5491 26.6939Z" fill="#9F9FBC"/>
<path d="M18.8447 24.7913H22.7087V25.8256H18.8447V24.7913Z" fill="#9F9FBC"/>
<path fill-rule="evenodd" clip-rule="evenodd" d="M22.9702 21.8785V23.103H17.9412V27.6209H22.9702V28.8454H16.7404V21.8785H22.9702Z" fill="#9F9FBC"/>
<path fill-rule="evenodd" clip-rule="evenodd" d="M59.6657 22.14C60.089 21.9165 60.6386 21.8725 60.8606 21.8785L65.8777 21.8785V23.103H60.8606C60.5455 23.103 59.9867 23.2398 59.9867 23.9353C59.9867 24.6724 60.5812 24.7913 60.8606 24.7913H64.1063C64.5581 24.7913 65.0597 24.8681 65.4438 25.1123C65.924 25.4175 66.2225 25.9033 66.2225 26.7946C66.2225 27.6859 65.8254 28.2892 65.2978 28.5761C64.883 28.8017 64.2547 28.8494 64.0231 28.8452L58.8394 28.8454V27.6209H64.0136C64.6187 27.6202 65.0693 27.3585 65.0693 26.7325C65.0693 25.9755 64.5283 25.8256 64.1063 25.8256L60.8487 25.8256C60.6022 25.8237 60.0388 25.7623 59.6598 25.5284C59.1783 25.2312 58.7265 24.7021 58.7265 23.8342C58.7265 22.9663 59.1367 22.4194 59.6657 22.14Z" fill="#9F9FBC"/>
<path fill-rule="evenodd" clip-rule="evenodd" d="M50.208 21.8666H51.4563V25.9207C51.4509 26.233 51.5394 26.9647 52.0627 27.3296C52.6682 27.7518 53.44 27.7483 53.9362 27.746L53.9412 27.746C53.9567 27.746 53.9725 27.7457 53.9887 27.7458C54.0049 27.7457 54.0208 27.7457 54.0363 27.7457L54.0412 27.746C54.5375 27.7483 55.3092 27.7518 55.9147 27.3296C56.438 26.9647 56.5268 26.233 56.5213 25.9207L56.5211 21.8666H57.7694V26.0753C57.7694 26.7054 57.5993 27.5181 56.9312 28.138C56.2111 28.8063 55.0386 28.9274 54.0363 28.9343C54.0205 28.9343 54.0046 28.9346 53.9887 28.9345C53.9728 28.9346 53.957 28.9346 53.9412 28.9346C52.9388 28.9278 51.7663 28.8063 51.0462 28.138C50.3782 27.5181 50.208 26.7054 50.208 26.0753V21.8666Z" fill="#9F9FBC"/>
<path fill-rule="evenodd" clip-rule="evenodd" d="M23.9154 21.8785H25.568L28.2371 24.4643L30.8645 21.8785H32.4398L28.9742 25.2252L32.7371 28.8454H31.0429L28.1122 25.9979L25.2054 28.8454H23.636L27.3811 25.2252L23.9154 21.8785Z" fill="#9F9FBC"/>
<path fill-rule="evenodd" clip-rule="evenodd" d="M37.6651 21.8785V21.8811C38.0438 21.8958 38.7346 21.9772 39.2523 22.2887C39.9917 22.7335 40.4055 23.2101 40.6849 23.9531C40.9107 24.5537 40.9092 25.0562 40.9085 25.273C40.9085 25.2839 40.9085 25.294 40.9085 25.3034L40.9084 25.4214C40.9084 25.4308 40.9085 25.4409 40.9085 25.4518C40.9092 25.6686 40.9107 26.1711 40.6849 26.7717C40.4055 27.5147 39.9917 27.9913 39.2523 28.4361C38.7336 28.7482 38.0411 28.8294 37.6629 28.8437V28.8463H35.6655V28.8437C35.2868 28.829 34.596 28.7476 34.0783 28.4361C33.3389 27.9913 32.9251 27.5147 32.6457 26.7717C32.4199 26.1711 32.4214 25.6686 32.4221 25.4518C32.4221 25.4454 32.4221 25.4392 32.4221 25.4333L32.422 25.2906C32.422 25.285 32.4221 25.2791 32.4221 25.273C32.4214 25.0562 32.4199 24.5537 32.6457 23.9531C32.9251 23.2101 33.3389 22.7335 34.0784 22.2887C34.597 21.9766 35.2895 21.8954 35.6677 21.8811V21.8785H37.6651ZM39.6957 25.4333V25.2909C39.6933 24.9466 39.5916 24.2536 39.1489 23.7876C38.7008 23.3159 38.2618 23.0912 37.5343 23.0912H35.7985C35.0709 23.0912 34.6298 23.3159 34.1817 23.7876C33.7336 24.2594 33.6348 24.9637 33.6348 25.3034L33.6347 25.4214C33.6347 25.7611 33.7336 26.4654 34.1817 26.9372C34.6294 27.4086 35.0681 27.6333 35.7947 27.6337L37.5321 27.6337C38.2597 27.6337 38.7008 27.4089 39.1489 26.9372C39.5919 26.4709 39.6934 25.7773 39.6957 25.4333Z" fill="#9F9FBC"/>
<path fill-rule="evenodd" clip-rule="evenodd" d="M45.9636 21.8666H42.0046V21.8785H41.9213V28.8454L45.9042 28.8463V27.6328L43.1221 27.6244V23.0911L45.9636 23.0912C46.6912 23.0912 47.1302 23.3159 47.5782 23.7876C48.021 24.2537 48.1227 24.9468 48.125 25.291V25.4333C48.1228 25.7773 48.0212 26.4709 47.5782 26.9372C47.1302 27.4089 46.689 27.6337 45.9614 27.6337L45.9042 27.6328V28.8463L46.0922 28.8463V28.8437C46.4704 28.8294 47.1629 28.7482 47.6816 28.4362C48.421 27.9913 48.8348 27.5148 49.1142 26.7717C49.34 26.1711 49.3385 25.6686 49.3378 25.4518C49.3378 25.441 49.3378 25.4308 49.3378 25.4214L49.3377 25.3034C49.3377 25.2941 49.3378 25.284 49.3378 25.2733C49.3385 25.0565 49.34 24.5537 49.1142 23.9531C48.8348 23.2101 48.421 22.7335 47.6816 22.2887C47.1639 21.9772 46.4731 21.8958 46.0944 21.8811V21.8785H45.963L45.9636 21.8666Z" fill="#9F9FBC"/>
<path d="M112.324 22.2723L108.369 28.845H109.748L112.909 23.4838L114.483 26.1157H112.324L111.753 27.0904H115.054L116.084 28.845H117.532L113.577 22.2723C113.452 22.0773 113.24 21.7988 112.951 21.7988C112.662 21.7988 112.465 22.0751 112.326 22.2699L112.324 22.2723Z" fill="#9F9FBC"/>
<path fill-rule="evenodd" clip-rule="evenodd" d="M125.447 22.1442C125.87 21.9209 126.42 21.8769 126.641 21.8829L131.655 21.8829V23.1066H126.633C126.317 23.1091 125.768 23.2494 125.768 23.9382C125.768 24.6696 126.354 24.7919 126.635 24.7936H129.885C130.336 24.7936 130.838 24.8704 131.221 25.1144C131.701 25.4195 132 25.9049 132 26.7956C132 27.6862 131.603 28.2891 131.075 28.5759C130.661 28.8013 130.033 28.8489 129.802 28.8447L124.622 28.845V27.6213H129.79C130.396 27.6213 130.847 27.3599 130.847 26.7335C130.847 25.977 130.307 25.8273 129.885 25.8273L126.641 25.8273C126.639 25.8273 126.636 25.8273 126.634 25.8273H126.629C126.383 25.8253 125.82 25.764 125.441 25.5303C124.96 25.2332 124.509 24.7045 124.509 23.8372C124.509 22.97 124.919 22.4234 125.447 22.1442Z" fill="#9F9FBC"/>
<path fill-rule="evenodd" clip-rule="evenodd" d="M92.6478 21.8824V28.845L97.7723 28.845C98.5967 28.845 99.0116 28.7336 99.499 28.3158C99.8054 28.0095 100.14 27.6669 100.14 26.7423C100.14 25.5865 99.2901 25.2662 99.0673 25.1826C99.875 24.8484 100.028 24.2357 100.028 23.7205C100.028 23.7177 100.028 23.7147 100.028 23.7115C100.028 23.6188 100.029 23.3531 99.8889 22.9546C99.4294 21.9798 98.3989 21.8824 97.7026 21.8824H92.6478ZM93.8732 23.0802V27.6474H97.452C98.1343 27.6474 98.8863 27.5109 98.8863 26.7423C98.8863 25.9736 98.2736 25.8371 97.9533 25.8371H94.7505V24.7927H97.9533C98.2736 24.7927 98.7471 24.6535 98.7471 23.9572C98.7471 23.2749 98.3154 23.1078 97.5773 23.1078L93.8732 23.0802Z" fill="#9F9FBC"/>
<path d="M101.114 21.8824H102.34V28.845H101.114V21.8824Z" fill="#9F9FBC"/>
<path fill-rule="evenodd" clip-rule="evenodd" d="M106.935 28.845V23.1078H109.553V21.8824H103.064V23.1078H105.71V28.845H106.935Z" fill="#9F9FBC"/>
<path fill-rule="evenodd" clip-rule="evenodd" d="M119.329 21.8824H118.103V28.845L124.035 28.845V27.6196H119.329V21.8824Z" fill="#9F9FBC"/>
<path fill-rule="evenodd" clip-rule="evenodd" d="M83.9584 21.8824V28.845H85.1838V23.0939H88.9297C89.4032 23.0939 90.2944 23.2192 90.2944 24.4307C90.2944 25.7397 89.4589 25.865 88.9297 25.865H86.0611V26.9094H88.6641L90.445 28.845H92.1465L90.0712 26.7423C91.2966 26.241 91.5059 25.1409 91.5059 24.4307C91.5059 23.7762 91.4233 23.2182 90.8514 22.6065C90.2526 21.9659 89.5146 21.8824 88.4981 21.8824L83.9584 21.8824Z" fill="#9F9FBC"/>
</svg>
