<svg width="40" height="40" viewBox="0 0 40 40" fill="none" xmlns="http://www.w3.org/2000/svg">
<path d="M19.9998 9.16667C19.5054 9.16667 19.022 9.31329 18.6109 9.58799C18.1998 9.8627 17.8794 10.2531 17.6901 10.71C17.5009 11.1668 17.4514 11.6694 17.5479 12.1544C17.6443 12.6393 17.8824 13.0848 18.2321 13.4344C18.5817 13.7841 19.0272 14.0222 19.5121 14.1186C19.9971 14.2151 20.4997 14.1656 20.9565 13.9764C21.4134 13.7871 21.8038 13.4667 22.0785 13.0556C22.3532 12.6445 22.4998 12.1611 22.4998 11.6667C22.4998 11.0036 22.2364 10.3677 21.7676 9.8989C21.2988 9.43006 20.6629 9.16667 19.9998 9.16667ZM36.6665 14.1667H35.7665C37.4137 12.3363 38.3276 9.96244 38.3332 7.5C38.3332 7.05797 38.1576 6.63405 37.845 6.32149C37.5325 6.00893 37.1085 5.83333 36.6665 5.83333H29.6998C29.356 4.86075 28.7197 4.01833 27.8783 3.42156C27.0368 2.8248 26.0314 2.5029 24.9998 2.5H14.9998C13.9683 2.5029 12.9628 2.8248 12.1214 3.42156C11.28 4.01833 10.6437 4.86075 10.2998 5.83333H3.33317C2.89114 5.83333 2.46722 6.00893 2.15466 6.32149C1.8421 6.63405 1.6665 7.05797 1.6665 7.5C1.67206 9.96244 2.58598 12.3363 4.23317 14.1667H3.33317C2.89114 14.1667 2.46722 14.3423 2.15466 14.6548C1.8421 14.9674 1.6665 15.3913 1.6665 15.8333C1.67206 18.2958 2.58598 20.6696 4.23317 22.5H3.33317C2.89114 22.5 2.46722 22.6756 2.15466 22.9882C1.8421 23.3007 1.6665 23.7246 1.6665 24.1667C1.67088 26.5732 2.54293 28.8974 4.12262 30.7128C5.70232 32.5282 7.88371 33.7131 10.2665 34.05C10.5925 35.0497 11.2253 35.9213 12.0751 36.5406C12.9249 37.16 13.9483 37.4957 14.9998 37.5H24.9998C26.0514 37.4957 27.0748 37.16 27.9246 36.5406C28.7743 35.9213 29.4072 35.0497 29.7332 34.05C32.116 33.7131 34.2974 32.5282 35.877 30.7128C37.4567 28.8974 38.3288 26.5732 38.3332 24.1667C38.3332 23.7246 38.1576 23.3007 37.845 22.9882C37.5325 22.6756 37.1085 22.5 36.6665 22.5H35.7665C37.4137 20.6696 38.3276 18.2958 38.3332 15.8333C38.3332 15.3913 38.1576 14.9674 37.845 14.6548C37.5325 14.3423 37.1085 14.1667 36.6665 14.1667ZM9.99984 30.6167C8.84831 30.3186 7.7975 29.7179 6.95641 28.8768C6.11532 28.0357 5.51458 26.9849 5.2165 25.8333H9.99984V30.6167ZM9.99984 22.2833C8.84831 21.9853 7.7975 21.3845 6.95641 20.5434C6.11532 19.7023 5.51458 18.6515 5.2165 17.5H9.99984V22.2833ZM9.99984 13.95C8.85624 13.6673 7.80541 13.0931 6.94984 12.2833C6.14007 11.4278 5.56585 10.3769 5.28317 9.23333H9.99984V13.95ZM26.6665 32.5C26.6665 32.942 26.4909 33.366 26.1783 33.6785C25.8658 33.9911 25.4419 34.1667 24.9998 34.1667H14.9998C14.5578 34.1667 14.1339 33.9911 13.8213 33.6785C13.5088 33.366 13.3332 32.942 13.3332 32.5V7.5C13.3332 7.05797 13.5088 6.63405 13.8213 6.32149C14.1339 6.00893 14.5578 5.83333 14.9998 5.83333H24.9998C25.4419 5.83333 25.8658 6.00893 26.1783 6.32149C26.4909 6.63405 26.6665 7.05797 26.6665 7.5V32.5ZM33.0498 28.8833C32.1943 29.6931 31.1434 30.2673 29.9998 30.55V25.8333H34.7832C34.4814 26.9838 33.8838 28.0353 33.0498 28.8833ZM33.0498 20.55C32.1943 21.3598 31.1434 21.934 29.9998 22.2167V17.5H34.7832C34.4814 18.6505 33.8838 19.702 33.0498 20.55ZM33.0498 12.2167C32.1943 13.0264 31.1434 13.6007 29.9998 13.8833V9.16667H34.7832C34.4814 10.3171 33.8838 11.3686 33.0498 12.2167ZM19.9998 25.8333C19.5054 25.8333 19.022 25.98 18.6109 26.2547C18.1998 26.5294 17.8794 26.9198 17.6901 27.3766C17.5009 27.8334 17.4514 28.3361 17.5479 28.8211C17.6443 29.306 17.8824 29.7515 18.2321 30.1011C18.5817 30.4507 19.0272 30.6888 19.5121 30.7853C19.9971 30.8818 20.4997 30.8322 20.9565 30.643C21.4134 30.4538 21.8038 30.1334 22.0785 29.7223C22.3532 29.3111 22.4998 28.8278 22.4998 28.3333C22.4998 27.6703 22.2364 27.0344 21.7676 26.5656C21.2988 26.0967 20.6629 25.8333 19.9998 25.8333ZM19.9998 17.5C19.5054 17.5 19.022 17.6466 18.6109 17.9213C18.1998 18.196 17.8794 18.5865 17.6901 19.0433C17.5009 19.5001 17.4514 20.0028 17.5479 20.4877C17.6443 20.9727 17.8824 21.4181 18.2321 21.7678C18.5817 22.1174 19.0272 22.3555 19.5121 22.452C19.9971 22.5484 20.4997 22.4989 20.9565 22.3097C21.4134 22.1205 21.8038 21.8 22.0785 21.3889C22.3532 20.9778 22.4998 20.4945 22.4998 20C22.4998 19.337 22.2364 18.7011 21.7676 18.2322C21.2988 17.7634 20.6629 17.5 19.9998 17.5Z" fill="#DA9B1A"/>
</svg>
