<svg width="14" height="14" viewBox="0 0 14 14" fill="none" xmlns="http://www.w3.org/2000/svg">
<path d="M13.1841 1.2028C13.1578 1.10289 13.1054 1.01175 13.0323 0.93869C12.9593 0.865631 12.8681 0.813268 12.7682 0.786948C11.5716 0.476143 10.3115 0.509619 9.13309 0.88352C7.95465 1.25742 6.90577 1.95654 6.10723 2.90039L5.45686 3.67262L3.9374 3.30601C3.568 3.17722 3.16448 3.18645 2.80135 3.33199C2.43823 3.47753 2.14003 3.74955 1.96182 4.09781L0.678385 6.37273C0.633415 6.45242 0.607823 6.54157 0.603676 6.63297C0.59953 6.72437 0.616945 6.81547 0.654515 6.8989C0.692085 6.98233 0.748756 7.05575 0.819948 7.11322C0.891139 7.1707 0.974855 7.21062 1.06433 7.22976L2.85676 7.614C2.70492 8.0762 2.5965 8.55155 2.53291 9.03387C2.52138 9.12249 2.53036 9.21256 2.55915 9.29716C2.58794 9.38175 2.63577 9.4586 2.69896 9.52178L4.50734 11.3302C4.56148 11.3843 4.62577 11.4273 4.69654 11.4567C4.7673 11.486 4.84315 11.5011 4.91975 11.5011C4.93656 11.5011 4.95337 11.5002 4.97046 11.4988C5.46357 11.4545 5.95069 11.3587 6.42386 11.213L6.79934 12.9648C6.81853 13.0543 6.85848 13.1379 6.91596 13.2091C6.97345 13.2803 7.04687 13.3369 7.13028 13.3745C7.2137 13.4121 7.30478 13.4295 7.39617 13.4254C7.48756 13.4212 7.5767 13.3957 7.65639 13.3508L9.93446 12.0659C10.2551 11.8711 10.5055 11.5795 10.6497 11.2331C10.7939 10.8867 10.8243 10.5035 10.7365 10.1387L10.3465 8.52933L11.0681 7.86579C12.0155 7.06947 12.7173 6.02054 13.0919 4.841C13.4664 3.66146 13.4984 2.3998 13.1841 1.2028ZM2.08402 6.2551L2.99177 4.64525C3.04815 4.53596 3.14421 4.45238 3.26025 4.41165C3.37628 4.37092 3.50351 4.37614 3.61582 4.42622L4.61764 4.669L4.23848 5.11921C3.879 5.55004 3.5681 6.01917 3.31138 6.5181L2.08402 6.2551ZM9.35827 11.0513L7.77405 11.9448L7.52351 10.7755C8.03136 10.5222 8.50452 10.2046 8.93131 9.83053L9.36503 9.43173L9.60037 10.4028C9.63089 10.5227 9.62406 10.649 9.5808 10.7649C9.53753 10.8808 9.45989 10.9808 9.35827 11.0513ZM10.2999 6.98826L8.15059 8.96355C7.29984 9.69929 6.25046 10.1669 5.13454 10.3077L3.73204 8.90516C3.92041 7.78633 4.40387 6.73801 5.13254 5.86835L6.11157 4.70596C6.12788 4.68889 6.1431 4.67082 6.15714 4.65184L6.99419 3.65803C7.61308 2.92706 8.41488 2.37343 9.31771 2.05367C10.2205 1.73391 11.1921 1.65948 12.1331 1.83797C12.3159 2.78193 12.2422 3.75764 11.9198 4.66346C11.5974 5.56929 11.038 6.3721 10.2999 6.98826ZM9.7615 3.39276C9.58844 3.39276 9.41927 3.44408 9.27538 3.54022C9.13148 3.63637 9.01933 3.77302 8.95311 3.93291C8.88688 4.09279 8.86955 4.26872 8.90332 4.43846C8.93708 4.60819 9.02041 4.7641 9.14278 4.88647C9.26515 5.00884 9.42106 5.09217 9.5908 5.12594C9.76053 5.1597 9.93646 5.14237 10.0963 5.07614C10.2562 5.00992 10.3929 4.89777 10.489 4.75387C10.5852 4.60998 10.6365 4.44081 10.6365 4.26775C10.6365 4.15284 10.6139 4.03906 10.5699 3.93289C10.5259 3.82673 10.4615 3.73026 10.3802 3.64901C10.299 3.56776 10.2025 3.5033 10.0963 3.45933C9.99017 3.41536 9.87639 3.39274 9.76147 3.39275L9.7615 3.39276Z" fill="#9F9FBC"/>
</svg>
