<svg width="40" height="40" viewBox="0 0 40 40" fill="none" xmlns="http://www.w3.org/2000/svg">
<path d="M20.0002 15C19.0113 15 18.0446 15.2933 17.2223 15.8427C16.4001 16.3921 15.7592 17.173 15.3808 18.0866C15.0023 19.0002 14.9033 20.0056 15.0962 20.9755C15.2892 21.9454 15.7654 22.8363 16.4646 23.5355C17.1639 24.2348 18.0548 24.711 19.0247 24.9039C19.9946 25.0969 21 24.9978 21.9136 24.6194C22.8272 24.241 23.6081 23.6001 24.1575 22.7779C24.7069 21.9556 25.0002 20.9889 25.0002 20C25.0002 18.6739 24.4734 17.4022 23.5357 16.4645C22.598 15.5268 21.3262 15 20.0002 15ZM20.0002 21.6667C19.6705 21.6667 19.3483 21.5689 19.0742 21.3858C18.8001 21.2027 18.5865 20.9424 18.4604 20.6378C18.3342 20.3333 18.3012 19.9982 18.3655 19.6749C18.4298 19.3516 18.5886 19.0546 18.8217 18.8215C19.0547 18.5884 19.3517 18.4297 19.675 18.3654C19.9983 18.3011 20.3334 18.3341 20.638 18.4602C20.9425 18.5864 21.2028 18.8 21.3859 19.0741C21.5691 19.3481 21.6668 19.6704 21.6668 20C21.6668 20.442 21.4912 20.866 21.1787 21.1785C20.8661 21.4911 20.4422 21.6667 20.0002 21.6667ZM35.0002 18.3333H33.2168C32.8448 15.4 31.5083 12.6735 29.4175 10.5827C27.3267 8.49184 24.6002 7.15533 21.6668 6.78334V5.00001C21.6668 4.55798 21.4912 4.13406 21.1787 3.8215C20.8661 3.50894 20.4422 3.33334 20.0002 3.33334C19.5581 3.33334 19.1342 3.50894 18.8217 3.8215C18.5091 4.13406 18.3335 4.55798 18.3335 5.00001V6.78334C15.4001 7.15533 12.6736 8.49184 10.5828 10.5827C8.49199 12.6735 7.15548 15.4 6.7835 18.3333H5.00016C4.55814 18.3333 4.13421 18.5089 3.82165 18.8215C3.50909 19.1341 3.3335 19.558 3.3335 20C3.3335 20.442 3.50909 20.866 3.82165 21.1785C4.13421 21.4911 4.55814 21.6667 5.00016 21.6667H6.7835C7.15548 24.6 8.49199 27.3265 10.5828 29.4174C12.6736 31.5082 15.4001 32.8447 18.3335 33.2167V35C18.3335 35.442 18.5091 35.866 18.8217 36.1785C19.1342 36.4911 19.5581 36.6667 20.0002 36.6667C20.4422 36.6667 20.8661 36.4911 21.1787 36.1785C21.4912 35.866 21.6668 35.442 21.6668 35V33.2167C24.6002 32.8447 27.3267 31.5082 29.4175 29.4174C31.5083 27.3265 32.8448 24.6 33.2168 21.6667H35.0002C35.4422 21.6667 35.8661 21.4911 36.1787 21.1785C36.4912 20.866 36.6668 20.442 36.6668 20C36.6668 19.558 36.4912 19.1341 36.1787 18.8215C35.8661 18.5089 35.4422 18.3333 35.0002 18.3333ZM20.0002 30C18.0224 30 16.089 29.4135 14.4445 28.3147C12.8 27.2159 11.5182 25.6541 10.7614 23.8268C10.0045 21.9996 9.80646 19.9889 10.1923 18.0491C10.5782 16.1093 11.5306 14.3275 12.9291 12.9289C14.3276 11.5304 16.1095 10.578 18.0493 10.1922C19.9891 9.80631 21.9997 10.0043 23.827 10.7612C25.6543 11.5181 27.216 12.7998 28.3149 14.4443C29.4137 16.0888 30.0002 18.0222 30.0002 20C30.0002 22.6522 28.9466 25.1957 27.0712 27.0711C25.1959 28.9464 22.6523 30 20.0002 30Z" fill="#DA9B1A"/>
</svg>
