<svg width="14" height="14" viewBox="0 0 14 14" fill="none" xmlns="http://www.w3.org/2000/svg">
<path d="M12.2494 2.33333H10.4994V1.75C10.4994 1.59529 10.438 1.44692 10.3286 1.33752C10.2192 1.22812 10.0708 1.16667 9.9161 1.16667H4.0828C3.92809 1.16667 3.77972 1.22812 3.67033 1.33752C3.56093 1.44692 3.49947 1.59529 3.49947 1.75V2.33333H1.74948C1.59478 2.33333 1.4464 2.39478 1.33701 2.50418C1.22761 2.61358 1.16615 2.76195 1.16615 2.91666V4.66665C1.16615 5.28548 1.41199 5.87897 1.84957 6.31655C2.28715 6.75414 2.88064 6.99997 3.49947 6.99997H4.3978C4.92544 7.58863 5.63683 7.98133 6.41612 8.11413V9.33329H5.83279C5.36867 9.33329 4.92355 9.51766 4.59536 9.84585C4.26718 10.174 4.0828 10.6191 4.0828 11.0833V12.2499C4.0828 12.4046 4.14426 12.553 4.25366 12.6624C4.36305 12.7718 4.51142 12.8333 4.66613 12.8333H9.33277C9.48748 12.8333 9.63585 12.7718 9.74525 12.6624C9.85465 12.553 9.9161 12.4046 9.9161 12.2499V11.0833C9.9161 10.6191 9.73173 10.174 9.40354 9.84585C9.07536 9.51766 8.63024 9.33329 8.16611 9.33329H7.58278V8.11413C8.36208 7.98133 9.07346 7.58863 9.6011 6.99997H10.4994C11.1183 6.99997 11.7118 6.75414 12.1493 6.31655C12.5869 5.87897 12.8328 5.28548 12.8328 4.66665V2.91666C12.8328 2.76195 12.7713 2.61358 12.6619 2.50418C12.5525 2.39478 12.4041 2.33333 12.2494 2.33333ZM3.49947 5.83331C3.19006 5.83331 2.89331 5.71039 2.67452 5.4916C2.45573 5.27281 2.33281 4.97606 2.33281 4.66665V3.49999H3.49947V4.66665C3.50076 5.06431 3.5698 5.45884 3.70364 5.83331H3.49947ZM8.16611 10.4999C8.32082 10.4999 8.46919 10.5614 8.57859 10.6708C8.68799 10.7802 8.74944 10.9286 8.74944 11.0833V11.6666H5.24946V11.0833C5.24946 10.9286 5.31092 10.7802 5.42032 10.6708C5.52971 10.5614 5.67808 10.4999 5.83279 10.4999H8.16611ZM9.33277 4.66665C9.33277 5.28548 9.08694 5.87897 8.64936 6.31655C8.21178 6.75414 7.61829 6.99997 6.99945 6.99997C6.38062 6.99997 5.78713 6.75414 5.34955 6.31655C4.91196 5.87897 4.66613 5.28548 4.66613 4.66665V2.33333H9.33277V4.66665ZM11.6661 4.66665C11.6661 4.97606 11.5432 5.27281 11.3244 5.4916C11.1056 5.71039 10.8089 5.83331 10.4994 5.83331H10.2953C10.4291 5.45884 10.4981 5.06431 10.4994 4.66665V3.49999H11.6661V4.66665Z" fill="#9F9FBC"/>
</svg>
