<svg width="40" height="40" viewBox="0 0 40 40" fill="none" xmlns="http://www.w3.org/2000/svg">
<path d="M8.23343 20.4C8.01773 20.3484 7.79389 20.3403 7.57504 20.3763C7.35618 20.4122 7.1467 20.4915 6.95888 20.6095C6.77106 20.7275 6.60868 20.8817 6.48125 21.0633C6.35381 21.2448 6.2639 21.4499 6.21676 21.6667L5.4001 24.9C5.31069 25.3285 5.39343 25.7749 5.63043 26.1429C5.86744 26.5109 6.23968 26.7708 6.66676 26.8667C7.09551 26.9724 7.5487 26.9037 7.92681 26.6756C8.30492 26.4474 8.57704 26.0786 8.68343 25.65L9.5001 22.4167C9.55174 22.201 9.55981 21.9771 9.52384 21.7583C9.48786 21.5394 9.40857 21.3299 9.2906 21.1421C9.17263 20.9543 9.01836 20.7919 8.83683 20.6645C8.6553 20.5371 8.45016 20.4471 8.23343 20.4ZM36.5668 32.9333L29.9001 6.26667C29.813 5.91349 29.6127 5.59853 29.3298 5.36982C29.0469 5.14112 28.697 5.01124 28.3334 5H23.3334C22.8914 5 22.4675 5.17559 22.1549 5.48816C21.8424 5.80072 21.6668 6.22464 21.6668 6.66667V33.3333C21.6668 33.7754 21.8424 34.1993 22.1549 34.5118C22.4675 34.8244 22.8914 35 23.3334 35H35.0001C35.2533 35.0014 35.5034 34.945 35.7315 34.8353C35.9597 34.7256 36.1598 34.5653 36.3168 34.3667C36.4812 34.1707 36.5983 33.9394 36.659 33.6908C36.7197 33.4423 36.7224 33.1831 36.6668 32.9333H36.5668ZM25.0001 31.6667V8.33333H27.0334L32.8668 31.6667H25.0001ZM10.6668 10.7C10.4533 10.6452 10.2311 10.6332 10.0131 10.6648C9.79497 10.6964 9.58531 10.7709 9.39622 10.884C9.20712 10.9972 9.04234 11.1467 8.91141 11.324C8.78048 11.5012 8.68599 11.7027 8.63343 11.9167L7.83343 15.15C7.72769 15.5787 7.79642 16.0319 8.02454 16.41C8.25266 16.7882 8.62151 17.0603 9.0501 17.1667H9.4501C9.83082 17.1778 10.2039 17.0581 10.5071 16.8276C10.8104 16.5972 11.0255 16.2698 11.1168 15.9L11.9168 12.6667C12.0067 12.2405 11.9262 11.7961 11.6926 11.4286C11.459 11.061 11.0908 10.7995 10.6668 10.7ZM12.5168 8.33333H15.8501C16.2921 8.33333 16.716 8.15774 17.0286 7.84518C17.3412 7.53262 17.5168 7.10869 17.5168 6.66667C17.5168 6.22464 17.3412 5.80072 17.0286 5.48816C16.716 5.17559 16.2921 5 15.8501 5H12.5168C12.0747 5 11.6508 5.17559 11.3383 5.48816C11.0257 5.80072 10.8501 6.22464 10.8501 6.66667C10.8501 7.10869 11.0257 7.53262 11.3383 7.84518C11.6508 8.15774 12.0747 8.33333 12.5168 8.33333ZM7.06676 31.6667C7.11981 31.2246 6.99508 30.7796 6.72003 30.4296C6.44497 30.0795 6.04212 29.853 5.6001 29.8C5.15807 29.747 4.71307 29.8717 4.36301 30.1467C4.01294 30.4218 3.78647 30.8246 3.73343 31.2667L3.33343 32.9333C3.27101 33.1793 3.26558 33.4363 3.31758 33.6847C3.36957 33.9331 3.4776 34.1664 3.63343 34.3667C3.79552 34.5721 4.0037 34.7365 4.24113 34.8465C4.47856 34.9566 4.73857 35.0091 5.0001 35H6.66676C7.10879 35.053 7.55378 34.9283 7.90385 34.6533C8.25392 34.3782 8.48039 33.9754 8.53343 33.5333C8.58647 33.0913 8.46175 32.6463 8.1867 32.2962C7.91164 31.9462 7.50879 31.7197 7.06676 31.6667ZM16.6668 10.85C16.2247 10.85 15.8008 11.0256 15.4883 11.3382C15.1757 11.6507 15.0001 12.0746 15.0001 12.5167V15.85C15.0001 16.292 15.1757 16.716 15.4883 17.0285C15.8008 17.3411 16.2247 17.5167 16.6668 17.5167C17.1088 17.5167 17.5327 17.3411 17.8453 17.0285C18.1578 16.716 18.3334 16.292 18.3334 15.85V12.5167C18.3334 12.0746 18.1578 11.6507 17.8453 11.3382C17.5327 11.0256 17.1088 10.85 16.6668 10.85ZM16.6668 20.85C16.2247 20.85 15.8008 21.0256 15.4883 21.3382C15.1757 21.6507 15.0001 22.0746 15.0001 22.5167V25.85C15.0001 26.292 15.1757 26.716 15.4883 27.0285C15.8008 27.3411 16.2247 27.5167 16.6668 27.5167C17.1088 27.5167 17.5327 27.3411 17.8453 27.0285C18.1578 26.716 18.3334 26.292 18.3334 25.85V22.5167C18.3334 22.0746 18.1578 21.6507 17.8453 21.3382C17.5327 21.0256 17.1088 20.85 16.6668 20.85ZM16.6668 30.85C16.3775 30.8501 16.0933 30.9254 15.842 31.0686C15.5907 31.2118 15.3809 31.4179 15.2334 31.6667H13.3334C12.8914 31.6667 12.4675 31.8423 12.1549 32.1548C11.8424 32.4674 11.6668 32.8913 11.6668 33.3333C11.6668 33.7754 11.8424 34.1993 12.1549 34.5118C12.4675 34.8244 12.8914 35 13.3334 35H16.6668C17.1088 35 17.5327 34.8244 17.8453 34.5118C18.1578 34.1993 18.3334 33.7754 18.3334 33.3333V32.5167C18.3334 32.0746 18.1578 31.6507 17.8453 31.3382C17.5327 31.0256 17.1088 30.85 16.6668 30.85Z" fill="#DA9B1A"/>
</svg>
