<svg width="40" height="40" viewBox="0 0 40 40" fill="none" xmlns="http://www.w3.org/2000/svg">
<path d="M14.113 13.9909L14.1093 13.9939L14.1057 13.9974L14.113 13.9909ZM30.7032 13.68C30.5872 13.5682 30.4586 13.4705 30.3199 13.3886C30.1235 13.2731 29.9055 13.199 29.6794 13.171C29.4533 13.1431 29.2238 13.1618 29.0052 13.226C28.7866 13.2902 28.5835 13.3986 28.4085 13.5444C28.2334 13.6903 28.0901 13.8705 27.9875 14.0739C27.4134 15.205 26.6216 16.2117 25.6575 17.0361C25.8049 16.2055 25.8793 15.3635 25.8797 14.5198C25.8828 11.9533 25.2057 9.43184 23.9174 7.2121C22.6292 4.99236 20.7757 3.15364 18.5457 1.88316C18.3 1.7439 18.023 1.66934 17.7407 1.66647C17.4583 1.66359 17.1798 1.7325 16.9314 1.86673C16.683 2.00095 16.4727 2.1961 16.3203 2.43384C16.168 2.67159 16.0785 2.94415 16.0603 3.22594C15.9671 4.80623 15.5539 6.35114 14.846 7.76705C14.138 9.18297 13.15 10.4404 11.9417 11.4632L11.5576 11.7757C10.2941 12.6259 9.17576 13.6739 8.24544 14.8795C6.79929 16.7014 5.79751 18.8351 5.31953 21.1115C4.84155 23.3879 4.90052 25.7444 5.49176 27.994C6.083 30.2436 7.19026 32.3246 8.72571 34.0718C10.2612 35.819 12.1826 37.1845 14.3376 38.0599C14.5906 38.1633 14.8652 38.2028 15.1372 38.175C15.4091 38.1472 15.67 38.0529 15.8968 37.9004C16.1237 37.748 16.3096 37.542 16.438 37.3007C16.5665 37.0594 16.6336 36.7903 16.6334 36.5169C16.6322 36.3401 16.6042 36.1645 16.5504 35.9961C16.1775 34.5945 16.0701 33.1354 16.2338 31.6943C17.8109 34.6688 20.3424 37.0266 23.4213 38.3887C23.7971 38.5568 24.222 38.5794 24.6135 38.4521C27.0461 37.667 29.2376 36.2729 30.9796 34.4022C32.7217 32.5316 33.9565 30.2466 34.5667 27.7643C35.1769 25.282 35.1422 22.685 34.466 20.2199C33.7898 17.7548 32.4945 15.5035 30.7032 13.68ZM24.1952 35.0651C22.7424 34.3288 21.4608 33.295 20.4338 32.0309C19.4068 30.7668 18.6573 29.3007 18.2341 27.7279C18.1049 27.1983 18.0049 26.662 17.9346 26.1214C17.887 25.7772 17.733 25.4564 17.4942 25.204C17.2553 24.9515 16.9435 24.7801 16.6024 24.7135C16.4974 24.6928 16.3905 24.6825 16.2834 24.6826C15.9905 24.6825 15.7027 24.7596 15.4491 24.9062C15.1955 25.0528 14.985 25.2637 14.8389 25.5176C13.456 27.9028 12.7605 30.6243 12.8296 33.3806C11.6133 32.4349 10.5969 31.2573 9.83906 29.9159C9.08127 28.5745 8.59725 27.096 8.41505 25.5662C8.23285 24.0364 8.35609 22.4856 8.77764 21.0038C9.19918 19.5219 9.91064 18.1385 10.8708 16.9336C11.5998 15.9867 12.4793 15.1658 13.4741 14.5036C13.5172 14.4758 13.5585 14.4454 13.5978 14.4125C13.5978 14.4125 14.0923 14.0033 14.1092 13.994C16.4837 11.9856 18.1725 9.2865 18.9404 6.27283C20.7564 7.95155 21.9673 10.1829 22.385 12.6203C22.8028 15.0578 22.4041 17.565 21.2508 19.7526C21.0984 20.0446 21.0359 20.3751 21.0712 20.7025C21.1064 21.0299 21.2379 21.3395 21.4489 21.5923C21.6599 21.8451 21.941 22.0297 22.2568 22.1229C22.5727 22.2161 22.909 22.2137 23.2235 22.116C25.7764 21.3157 28.023 19.7525 29.6607 17.6368C30.6449 19.0906 31.2884 20.7478 31.5432 22.4849C31.7979 24.222 31.6574 25.9942 31.132 27.6694C30.6067 29.3446 29.7101 30.8797 28.509 32.1602C27.3079 33.4407 25.8333 34.4337 24.1952 35.0651L24.1952 35.0651Z" fill="#DA9B1A"/>
</svg>
